<?xml version="1.0" encoding="utf-8"?>
<!-- Generator: Adobe Illustrator 16.0.0, SVG Export Plug-In . SVG Version: 6.00 Build 0)  -->
<!DOCTYPE svg PUBLIC "-//W3C//DTD SVG 1.1//EN" "http://www.w3.org/Graphics/SVG/1.1/DTD/svg11.dtd">
<svg version="1.1" id="Layer_1" xmlns="http://www.w3.org/2000/svg" xmlns:xlink="http://www.w3.org/1999/xlink" x="0px" y="0px"
	 width="419.53px" height="297.64px" viewBox="0 0 419.53 297.64" enable-background="new 0 0 419.53 297.64" xml:space="preserve">
<g>
	<path fill-rule="evenodd" clip-rule="evenodd" d="M118.388,203.469c-8.64-10.527-11.357-22.621-9.229-35.934
		c0.269-1.682,0.545-3.896-0.278-5.137c-7.07-10.654-7.433-22.496-6.833-34.628c0.133-2.693-0.14-5.619-1.079-8.117
		c-7.01-18.643-8.554-37.541-3.179-56.834c0.666-2.389,1.573-4.744,2.646-6.98c5.588-11.637,12.329-13.734,23.101-6.768
		c13.971,9.035,25.331,21.029,36.508,33.184c2.359,2.566,4.686,5.168,7.197,7.941c27.773-15.777,56.113-11.611,83.547-2.904
		c11.479-10.832,22.396-21.496,33.736-31.693c5.936-5.338,12.457-9.959,21.164-10.109c4.699-0.082,7.799,1.598,10.355,5.455
		c5.602,8.455,8.041,17.844,8.691,27.77c1.018,15.484-1.443,30.57-6.027,45.299c-2.01,6.453-5.855,12.529-6.785,19.07
		c-1.129,7.943-0.686,16.269,0.178,24.31c2.6,24.236-3.082,45.889-18.695,64.768c-0.191,0.229-0.568,0.303-1.295,0.668
		c1.039-5.773,1.926-11.789-2.715-15.783c-4.045-3.482-8.896-6.715-13.938-8.209c-10.174-3.014-20.764-4.592-31.092-7.135
		c-4.139-1.018-8.326-2.525-11.979-4.678c-5.732-3.377-7.686-8.781-8.02-15.574c-0.445-9.057-1.148-18.402-3.793-26.992
		c-5.924-19.234-25.025-31.287-45.162-30.308c-4.4,0.213-8.984-0.391-13.271-1.467c-7.167-1.799-11.136-6.805-12.193-14.174
		c-2.433-16.957-9.819-31.676-20.729-44.68c-2.213-2.637-4.994-4.922-7.854-6.867c-7.979-5.428-11.01-4.68-15.755,3.854
		c-6.383,11.48-5.47,23.738-3.411,36.053c0.356,2.127,0.811,4.268,1.499,6.309c3.6,10.666,5.654,21.186,4.59,32.855
		c-0.724,7.941,3.442,16.326,5.414,24.517c0.373,1.549,1.419,3.371,0.954,4.623c-4.298,11.578-1.559,22.633,2.092,33.662
		C117.264,200.389,117.84,201.924,118.388,203.469z M317.814,89.463c-1.348-9.107-1.961-17.281-3.854-25.145
		c-3.268-13.568-9.676-15.621-20.492-7.004c-11.699,9.322-21.027,20.879-28.982,33.377c-2.574,4.041-3.584,9.75-3.51,14.67
		c0.166,10.813,11.16,18.121,20.523,14.414c9.219-3.648,11.135-2.838,14.998,6.41c1.42,3.396,3.385,6.424,7.479,6.275
		c4.039-0.145,6.326-3.061,7.051-6.699C313.482,113.426,315.67,101.04,317.814,89.463z M232.57,179.381
		c5.023-17.463,19.102-17.664,33.176-18.213c-8.703-1.799-17.391-3.99-25.514,1.85C234.66,167.021,231.656,172.34,232.57,179.381z
		 M261.254,177.35c-5.262,5.805-11.686,8.482-20.594,7.184C249.307,189.203,257.273,186.145,261.254,177.35z M256.488,175.941
		c-3.922,1.197-7.996,2.443-11.59,3.541C250.418,181.939,253.455,181.012,256.488,175.941z"/>
	<path fill-rule="evenodd" clip-rule="evenodd" d="M187.021,183.289c-2.273,0-4.348-0.371-6.242,0.059
		c-15.463,3.516-23.096-1.266-26.988-16.586c-0.498-1.963-3.054-3.404-5.022-5.471c10.594-0.984,21.299-2.293,30.977,4.035
		C186.273,169.592,188.02,176.137,187.021,183.289z"/>
	<path fill-rule="evenodd" clip-rule="evenodd" d="M194.389,209.309c0.529,4.76,0.943,8.494,1.424,12.813
		c3.846-2.664,7.002-3.199,10.535-0.418c1.193,0.938,4.236,0.963,5.514,0.078c3.463-2.398,6.553-2.984,10.428,0.818
		c0.586-3.875,1.014-6.713,1.58-10.459c2.273,10.715,1.23,13.039-7.023,18.596c-1.324,0.893-1.844,2.893-3.021,4.104
		c-1.4,1.441-3.109,3.58-4.684,3.58c-1.59-0.002-3.328-2.109-4.711-3.57c-0.936-0.988-1.064-3.176-2.068-3.598
		C192.309,227.043,192.852,218.916,194.389,209.309z"/>
	<path fill-rule="evenodd" clip-rule="evenodd" d="M186.016,249.174c9.164,2.625,17.166,1.547,23.109-7.363
		c5.188,7.859,12.428,10.02,21.225,8.084c-6.146,3.617-12.207,3.383-18.035,0.053c-2.307-1.316-3.896-1.396-6.264-0.041
		C199.361,253.736,192.596,253.354,186.016,249.174z"/>
</g>
</svg>
