<?xml version="1.0" encoding="utf-8"?>
<!-- Generator: Adobe Illustrator 16.0.0, SVG Export Plug-In . SVG Version: 6.00 Build 0)  -->
<!DOCTYPE svg PUBLIC "-//W3C//DTD SVG 1.1//EN" "http://www.w3.org/Graphics/SVG/1.1/DTD/svg11.dtd">
<svg version="1.1" id="Layer_1" xmlns="http://www.w3.org/2000/svg" xmlns:xlink="http://www.w3.org/1999/xlink" x="0px" y="0px"
	 width="230.46px" height="207.78px" viewBox="0 0 230.46 207.78" enable-background="new 0 0 230.46 207.78" xml:space="preserve">
<path fill-rule="evenodd" clip-rule="evenodd" fill="#FFFFFF" d="M23.821,158.466c-8.64-10.527-11.357-22.621-9.229-35.934
	c0.269-1.682,0.545-3.896-0.278-5.137c-7.07-10.654-7.433-22.497-6.833-34.629c0.133-2.693-0.14-5.619-1.079-8.117
	c-7.01-18.643-8.554-37.54-3.179-56.834c0.666-2.389,1.573-4.743,2.646-6.979C11.457-0.802,18.198-2.899,28.97,4.068
	c13.971,9.035,25.331,21.029,36.508,33.184c2.36,2.566,4.686,5.167,7.198,7.94c27.773-15.777,56.112-11.611,83.546-2.903
	c11.479-10.833,22.396-21.496,33.736-31.693c5.936-5.339,12.457-9.96,21.164-10.11c4.699-0.082,7.799,1.598,10.355,5.455
	c5.602,8.456,8.041,17.844,8.691,27.77c1.018,15.484-1.443,30.57-6.027,45.3c-2.01,6.452-5.855,12.528-6.785,19.07
	c-1.129,7.943-0.686,16.269,0.178,24.31c2.6,24.236-3.082,45.889-18.695,64.768c-0.191,0.229-0.568,0.303-1.295,0.668
	c1.039-5.773,1.926-11.789-2.715-15.783c-4.045-3.482-8.896-6.715-13.938-8.209c-10.174-3.014-20.764-4.592-31.092-7.135
	c-4.139-1.018-8.326-2.525-11.979-4.678c-5.732-3.377-7.686-8.781-8.02-15.574c-0.445-9.057-1.148-18.402-3.793-26.992
	c-5.924-19.235-25.025-31.287-45.161-30.309c-4.4,0.214-8.985-0.391-13.272-1.467c-7.167-1.799-11.136-6.804-12.192-14.174
	c-2.433-16.957-9.819-31.676-20.729-44.679c-2.213-2.638-4.994-4.922-7.854-6.868c-7.979-5.428-11.01-4.679-15.755,3.854
	c-6.383,11.48-5.47,23.738-3.411,36.053c0.356,2.128,0.811,4.269,1.499,6.309c3.6,10.666,5.654,21.186,4.59,32.855
	c-0.724,7.941,3.442,16.327,5.414,24.518c0.373,1.549,1.419,3.371,0.954,4.623c-4.298,11.578-1.559,22.633,2.092,33.662
	C22.697,155.386,23.273,156.921,23.821,158.466z M223.247,44.46c-1.348-9.108-1.961-17.281-3.854-25.145
	c-3.268-13.569-9.676-15.621-20.492-7.004c-11.699,9.322-21.027,20.879-28.982,33.376c-2.574,4.042-3.584,9.751-3.51,14.671
	c0.166,10.813,11.16,18.121,20.523,14.414c9.219-3.649,11.135-2.838,14.998,6.409c1.42,3.397,3.385,6.425,7.479,6.276
	c4.039-0.146,6.326-3.061,7.051-6.7C218.915,68.423,221.103,56.036,223.247,44.46z M138.003,134.378
	c5.023-17.463,19.102-17.664,33.176-18.213c-8.703-1.799-17.391-3.99-25.514,1.85C140.093,122.019,137.089,127.337,138.003,134.378z
	 M166.687,132.347c-5.262,5.805-11.686,8.482-20.594,7.184C154.739,144.2,162.706,141.142,166.687,132.347z M161.921,130.938
	c-3.922,1.197-7.996,2.443-11.59,3.541C155.851,136.937,158.888,136.009,161.921,130.938z"/>
<path fill-rule="evenodd" clip-rule="evenodd" fill="#FFFFFF" d="M92.455,138.286c-2.273,0-4.349-0.371-6.242,0.059
	c-15.464,3.516-23.097-1.266-26.988-16.586c-0.498-1.963-3.054-3.404-5.022-5.471c10.595-0.984,21.3-2.293,30.978,4.035
	C91.707,124.589,93.453,131.134,92.455,138.286z"/>
<path fill-rule="evenodd" clip-rule="evenodd" fill="#FFFFFF" d="M99.822,164.306c0.528,4.76,0.943,8.494,1.423,12.813
	c3.846-2.664,7.003-3.199,10.535-0.418c1.193,0.938,4.236,0.963,5.514,0.078c3.463-2.398,6.553-2.984,10.428,0.818
	c0.586-3.875,1.014-6.713,1.58-10.459c2.273,10.715,1.23,13.039-7.023,18.596c-1.324,0.893-1.844,2.893-3.021,4.104
	c-1.4,1.441-3.109,3.58-4.683,3.58c-1.59-0.002-3.329-2.109-4.711-3.57c-0.936-0.988-1.064-3.176-2.069-3.598
	C97.741,182.04,98.285,173.913,99.822,164.306z"/>
<path fill-rule="evenodd" clip-rule="evenodd" fill="#FFFFFF" d="M91.448,204.171c9.164,2.625,17.166,1.547,23.11-7.363
	c5.187,7.859,12.427,10.02,21.224,8.084c-6.146,3.617-12.207,3.383-18.035,0.053c-2.306-1.316-3.896-1.396-6.264-0.041
	C104.795,208.733,98.028,208.351,91.448,204.171z"/>
</svg>
