  0
SECTION
  2
HEADER
  9
$ACADVER
  1
AC1018
  9
$ACADMAINTVER
 70
     0
  9
$DWGCODEPAGE
  3
ANSI_1254
  9
$LASTSAVEDBY
  1
lenovo
  9
$INSBASE
 10
0.0
 20
0.0
 30
0.0
  9
$EXTMIN
 10
4.000003814697266
 20
139.9940032958984
 30
0.0
  9
$EXTMAX
 10
45.00700378417969
 20
181.0
 30
0.0
  9
$LIMMIN
 10
0.0
 20
0.0
  9
$LIMMAX
 10
12.0
 20
9.0
  9
$ORTHOMODE
 70
     0
  9
$REGENMODE
 70
     1
  9
$FILLMODE
 70
     1
  9
$QTEXTMODE
 70
     0
  9
$MIRRTEXT
 70
     1
  9
$LTSCALE
 40
1.0
  9
$ATTMODE
 70
     1
  9
$TEXTSIZE
 40
1.0
  9
$TRACEWID
 40
0.05
  9
$TEXTSTYLE
  7
STANDARD
  9
$CLAYER
  8
0
  9
$CELTYPE
  6
ByBlock
  9
$CECOLOR
 62
   256
  9
$CELTSCALE
 40
1.0
  9
$DISPSILH
 70
     0
  9
$DIMSCALE
 40
1.0
  9
$DIMASZ
 40
0.18
  9
$DIMEXO
 40
0.0625
  9
$DIMDLI
 40
0.38
  9
$DIMRND
 40
0.0
  9
$DIMDLE
 40
0.0
  9
$DIMEXE
 40
0.18
  9
$DIMTP
 40
0.0
  9
$DIMTM
 40
0.0
  9
$DIMTXT
 40
0.18
  9
$DIMCEN
 40
0.09
  9
$DIMTSZ
 40
0.0
  9
$DIMTOL
 70
     0
  9
$DIMLIM
 70
     0
  9
$DIMTIH
 70
     1
  9
$DIMTOH
 70
     1
  9
$DIMSE1
 70
     0
  9
$DIMSE2
 70
     0
  9
$DIMTAD
 70
     0
  9
$DIMZIN
 70
     0
  9
$DIMBLK
  1

  9
$DIMASO
 70
     1
  9
$DIMSHO
 70
     1
  9
$DIMPOST
  1

  9
$DIMAPOST
  1

  9
$DIMALT
 70
     0
  9
$DIMALTD
 70
     2
  9
$DIMALTF
 40
25.4
  9
$DIMLFAC
 40
1.0
  9
$DIMTOFL
 70
     0
  9
$DIMTVP
 40
0.0
  9
$DIMTIX
 70
     0
  9
$DIMSOXD
 70
     0
  9
$DIMSAH
 70
     0
  9
$DIMBLK1
  1

  9
$DIMBLK2
  1

  9
$DIMSTYLE
  2
Standard
  9
$DIMCLRD
 70
     0
  9
$DIMCLRE
 70
     0
  9
$DIMCLRT
 70
     0
  9
$DIMTFAC
 40
1.0
  9
$DIMGAP
 40
0.09
  9
$DIMJUST
 70
     0
  9
$DIMSD1
 70
     0
  9
$DIMSD2
 70
     0
  9
$DIMTOLJ
 70
     1
  9
$DIMTZIN
 70
     0
  9
$DIMALTZ
 70
     0
  9
$DIMALTTZ
 70
     0
  9
$DIMUPT
 70
     0
  9
$DIMDEC
 70
     4
  9
$DIMTDEC
 70
     4
  9
$DIMALTU
 70
     2
  9
$DIMALTTD
 70
     2
  9
$DIMTXSTY
  7
STANDARD
  9
$DIMAUNIT
 70
     0
  9
$DIMADEC
 70
     0
  9
$DIMALTRND
 40
0.0
  9
$DIMAZIN
 70
     0
  9
$DIMDSEP
 70
    46
  9
$DIMATFIT
 70
     3
  9
$DIMFRAC
 70
     0
  9
$DIMLDRBLK
  1

  9
$DIMLUNIT
 70
     2
  9
$DIMLWD
 70
    -2
  9
$DIMLWE
 70
    -2
  9
$DIMTMOVE
 70
     2
  9
$LUNITS
 70
     2
  9
$LUPREC
 70
     4
  9
$SKETCHINC
 40
0.1
  9
$FILLETRAD
 40
0.5
  9
$AUNITS
 70
     0
  9
$AUPREC
 70
     0
  9
$MENU
  1
.
  9
$ELEVATION
 40
0.0
  9
$PELEVATION
 40
0.0
  9
$THICKNESS
 40
0.0
  9
$LIMCHECK
 70
     0
  9
$CHAMFERA
 40
0.0
  9
$CHAMFERB
 40
0.0
  9
$CHAMFERC
 40
0.0
  9
$CHAMFERD
 40
0.0
  9
$SKPOLY
 70
     0
  9
$TDCREATE
 40
2459219.776523727
  9
$TDUCREATE
 40
2459219.651523727
  9
$TDUPDATE
 40
2459219.776814225
  9
$TDUUPDATE
 40
2459219.651814225
  9
$TDINDWG
 40
0.0002846991
  9
$TDUSRTIMER
 40
0.0002846875
  9
$USRTIMER
 70
     1
  9
$ANGBASE
 50
0.0
  9
$ANGDIR
 70
     0
  9
$PDMODE
 70
     0
  9
$PDSIZE
 40
0.0
  9
$PLINEWID
 40
0.0
  9
$SPLFRAME
 70
     0
  9
$SPLINETYPE
 70
     6
  9
$SPLINESEGS
 70
     8
  9
$HANDSEED
  5
189
  9
$SURFTAB1
 70
     6
  9
$SURFTAB2
 70
     6
  9
$SURFTYPE
 70
     6
  9
$SURFU
 70
     6
  9
$SURFV
 70
     6
  9
$UCSBASE
  2

  9
$UCSNAME
  2

  9
$UCSORG
 10
0.0
 20
0.0
 30
0.0
  9
$UCSXDIR
 10
1.0
 20
0.0
 30
0.0
  9
$UCSYDIR
 10
0.0
 20
1.0
 30
0.0
  9
$UCSORTHOREF
  2

  9
$UCSORTHOVIEW
 70
     0
  9
$UCSORGTOP
 10
0.0
 20
0.0
 30
0.0
  9
$UCSORGBOTTOM
 10
0.0
 20
0.0
 30
0.0
  9
$UCSORGLEFT
 10
0.0
 20
0.0
 30
0.0
  9
$UCSORGRIGHT
 10
0.0
 20
0.0
 30
0.0
  9
$UCSORGFRONT
 10
0.0
 20
0.0
 30
0.0
  9
$UCSORGBACK
 10
0.0
 20
0.0
 30
0.0
  9
$PUCSBASE
  2

  9
$PUCSNAME
  2

  9
$PUCSORG
 10
0.0
 20
0.0
 30
0.0
  9
$PUCSXDIR
 10
1.0
 20
0.0
 30
0.0
  9
$PUCSYDIR
 10
0.0
 20
1.0
 30
0.0
  9
$PUCSORTHOREF
  2

  9
$PUCSORTHOVIEW
 70
     0
  9
$PUCSORGTOP
 10
0.0
 20
0.0
 30
0.0
  9
$PUCSORGBOTTOM
 10
0.0
 20
0.0
 30
0.0
  9
$PUCSORGLEFT
 10
0.0
 20
0.0
 30
0.0
  9
$PUCSORGRIGHT
 10
0.0
 20
0.0
 30
0.0
  9
$PUCSORGFRONT
 10
0.0
 20
0.0
 30
0.0
  9
$PUCSORGBACK
 10
0.0
 20
0.0
 30
0.0
  9
$USERI1
 70
     0
  9
$USERI2
 70
     0
  9
$USERI3
 70
     0
  9
$USERI4
 70
     0
  9
$USERI5
 70
     0
  9
$USERR1
 40
0.0
  9
$USERR2
 40
0.0
  9
$USERR3
 40
0.0
  9
$USERR4
 40
0.0
  9
$USERR5
 40
0.0
  9
$WORLDVIEW
 70
     1
  9
$SHADEDGE
 70
     3
  9
$SHADEDIF
 70
    70
  9
$TILEMODE
 70
     1
  9
$MAXACTVP
 70
    64
  9
$PINSBASE
 10
0.0
 20
0.0
 30
0.0
  9
$PLIMCHECK
 70
     0
  9
$PEXTMIN
 10
1.000000000000000E+20
 20
1.000000000000000E+20
 30
1.000000000000000E+20
  9
$PEXTMAX
 10
-1.000000000000000E+20
 20
-1.000000000000000E+20
 30
-1.000000000000000E+20
  9
$PLIMMIN
 10
0.0
 20
0.0
  9
$PLIMMAX
 10
0.0
 20
0.0
  9
$UNITMODE
 70
     0
  9
$VISRETAIN
 70
     1
  9
$PLINEGEN
 70
     0
  9
$PSLTSCALE
 70
     1
  9
$TREEDEPTH
 70
  3020
  9
$CMLSTYLE
  2
Standard
  9
$CMLJUST
 70
     0
  9
$CMLSCALE
 40
1.0
  9
$PROXYGRAPHICS
 70
     1
  9
$MEASUREMENT
 70
     0
  9
$CELWEIGHT
370
    -1
  9
$ENDCAPS
280
     0
  9
$JOINSTYLE
280
     0
  9
$LWDISPLAY
290
     0
  9
$INSUNITS
 70
     0
  9
$HYPERLINKBASE
  1

  9
$STYLESHEET
  1

  9
$XEDIT
290
     1
  9
$CEPSNTYPE
380
     0
  9
$PSTYLEMODE
290
     1
  9
$FINGERPRINTGUID
  2
{67bb8d2c-5cf2-403d-aaf0-42865923d4a3}
  9
$VERSIONGUID
  2
{FAEB1C32-E019-11D5-929B-00C0DF256EC4}
  9
$EXTNAMES
290
     1
  9
$PSVPSCALE
 40
0.0
  9
$OLESTARTUP
290
     0
  9
$SORTENTS
280
   127
  9
$INDEXCTL
280
     0
  9
$HIDETEXT
280
     1
  9
$XCLIPFRAME
290
     0
  9
$HALOGAP
280
     0
  9
$OBSCOLOR
 70
   257
  9
$OBSLTYPE
280
     0
  9
$INTERSECTIONDISPLAY
280
     0
  9
$INTERSECTIONCOLOR
 70
   257
  9
$DIMASSOC
280
     2
  9
$PROJECTNAME
  1

  0
ENDSEC
  0
SECTION
  2
CLASSES
  0
CLASS
  1
ACDBDICTIONARYWDFLT
  2
AcDbDictionaryWithDefault
  3
ObjectDBX Classes
 90
        0
 91
        3
280
     0
281
     0
  0
CLASS
  1
MATERIAL
  2
AcDbMaterial
  3
ObjectDBX Classes
 90
     1153
 91
        3
280
     0
281
     0
  0
CLASS
  1
SCALE
  2
AcDbScale
  3
ObjectDBX Classes
 90
     1153
 91
        3
280
     0
281
     0
  0
CLASS
  1
VISUALSTYLE
  2
AcDbVisualStyle
  3
ObjectDBX Classes
 90
     4095
 91
        3
280
     0
281
     0
  0
CLASS
  1
TABLESTYLE
  2
AcDbTableStyle
  3
ObjectDBX Classes
 90
     4095
 91
        3
280
     0
281
     0
  0
CLASS
  1
MLEADERSTYLE
  2
AcDbMLeaderStyle
  3
ACDB_MLEADERSTYLE_CLASS
 90
     4095
 91
        3
280
     0
281
     0
  0
CLASS
  1
DICTIONARYVAR
  2
AcDbDictionaryVar
  3
ObjectDBX Classes
 90
        0
 91
        3
280
     0
281
     0
  0
CLASS
  1
CELLSTYLEMAP
  2
AcDbCellStyleMap
  3
ObjectDBX Classes
 90
     1152
 91
        3
280
     0
281
     0
  0
ENDSEC
  0
SECTION
  2
TABLES
  0
TABLE
  2
VPORT
  5
8
330
0
100
AcDbSymbolTable
 70
     1
  0
VPORT
  5
28
330
8
100
AcDbSymbolTableRecord
100
AcDbViewportTableRecord
  2
*Active
 70
     0
 10
0.0
 20
0.0
 11
1.0
 21
1.0
 12
29.26832312090967
 22
159.6759582411516
 13
0.0
 23
0.0
 14
0.5
 24
0.5
 15
0.5
 25
0.5
 16
0.0
 26
0.0
 36
1.0
 17
0.0
 27
0.0
 37
0.0
 40
81.69163405895233
 41
2.12332838038633
 42
50.0
 43
0.0
 44
0.0
 50
0.0
 51
0.0
 71
    16
 72
   100
 73
     1
 74
     3
 75
     0
 76
     0
 77
     0
 78
     0
281
     0
 65
     1
110
0.0
120
0.0
130
0.0
111
1.0
121
0.0
131
0.0
112
0.0
122
1.0
132
0.0
 79
     0
146
0.0
  0
ENDTAB
  0
TABLE
  2
LTYPE
  5
5
330
0
100
AcDbSymbolTable
 70
     1
  0
LTYPE
  5
14
330
5
100
AcDbSymbolTableRecord
100
AcDbLinetypeTableRecord
  2
ByBlock
 70
     0
  3

 72
    65
 73
     0
 40
0.0
  0
LTYPE
  5
15
330
5
100
AcDbSymbolTableRecord
100
AcDbLinetypeTableRecord
  2
ByLayer
 70
     0
  3

 72
    65
 73
     0
 40
0.0
  0
LTYPE
  5
16
330
5
100
AcDbSymbolTableRecord
100
AcDbLinetypeTableRecord
  2
CONTINUOUS
 70
     0
  3
Solid line
 72
    65
 73
     0
 40
0.0
  0
ENDTAB
  0
TABLE
  2
LAYER
  5
2
330
0
100
AcDbSymbolTable
 70
     1
  0
LAYER
  5
10
330
2
100
AcDbSymbolTableRecord
100
AcDbLayerTableRecord
  2
0
 70
     0
 62
     7
  6
CONTINUOUS
370
    -3
390
F
  0
ENDTAB
  0
TABLE
  2
STYLE
  5
3
330
0
100
AcDbSymbolTable
 70
     1
  0
STYLE
  5
11
330
3
100
AcDbSymbolTableRecord
100
AcDbTextStyleTableRecord
  2
STANDARD
 70
     0
 40
0.0
 41
1.0
 50
0.0
 71
     0
 42
1.0
  3
ARIAL.TTF
  4

  0
ENDTAB
  0
TABLE
  2
VIEW
  5
6
330
0
100
AcDbSymbolTable
 70
     0
  0
ENDTAB
  0
TABLE
  2
UCS
  5
7
330
0
100
AcDbSymbolTable
 70
     0
  0
ENDTAB
  0
TABLE
  2
APPID
  5
9
330
0
100
AcDbSymbolTable
 70
     2
  0
APPID
  5
12
330
9
100
AcDbSymbolTableRecord
100
AcDbRegAppTableRecord
  2
ACAD
 70
     0
  0
APPID
  5
182
330
9
100
AcDbSymbolTableRecord
100
AcDbRegAppTableRecord
  2
ACAD_MLEADERVER
 70
     0
  0
ENDTAB
  0
TABLE
  2
DIMSTYLE
  5
A
330
0
100
AcDbSymbolTable
 70
     1
100
AcDbDimStyleTable
  0
DIMSTYLE
105
27
330
A
100
AcDbSymbolTableRecord
100
AcDbDimStyleTableRecord
  2
Standard
 70
     0
178
     0
340
11
  0
ENDTAB
  0
TABLE
  2
BLOCK_RECORD
  5
1
330
0
100
AcDbSymbolTable
 70
     1
  0
BLOCK_RECORD
  5
1D
330
1
100
AcDbSymbolTableRecord
100
AcDbBlockTableRecord
  2
*Model_Space
340
1E
  0
BLOCK_RECORD
  5
1B
330
1
100
AcDbSymbolTableRecord
100
AcDbBlockTableRecord
  2
*Paper_Space
340
1C
  0
BLOCK_RECORD
  5
2A
330
1
100
AcDbSymbolTableRecord
100
AcDbBlockTableRecord
  2
KARE001001_SOLID
340
0
102
{BLKREFS
331
0
102
}
  0
ENDTAB
  0
ENDSEC
  0
SECTION
  2
BLOCKS
  0
BLOCK
  5
D5
330
1D
100
AcDbEntity
  8
0
100
AcDbBlockBegin
  2
*Model_Space
 70
     0
 10
0.0
 20
0.0
 30
0.0
  3
*Model_Space
  1

  0
ENDBLK
  5
D6
330
1D
100
AcDbEntity
  8
0
100
AcDbBlockEnd
  0
BLOCK
  5
D7
330
1B
100
AcDbEntity
 67
     1
  8
0
100
AcDbBlockBegin
  2
*Paper_Space
 70
     0
 10
0.0
 20
0.0
 30
0.0
  3
*Paper_Space
  1

  0
ENDBLK
  5
D8
330
1B
100
AcDbEntity
 67
     1
  8
0
100
AcDbBlockEnd
  0
BLOCK
  5
29
330
2A
100
AcDbEntity
  8
0
100
AcDbBlockBegin
  2
KARE001001_SOLID
 70
     0
 10
0.0
 20
0.0
 30
0.0
  3
KARE001001_SOLID
  1

  0
LINE
  5
2B
330
2A
100
AcDbEntity
  8
0
 62
     0
100
AcDbLine
 10
28.59600448608398
 20
160.9100036621094
 30
0.0
 11
28.62007331848145
 21
160.6541442871094
 31
0.0
  0
LINE
  5
2C
330
2A
100
AcDbEntity
  8
0
 62
     0
100
AcDbLine
 10
27.37700462341309
 20
157.5189971923828
 30
0.0
 11
27.71453285217285
 21
157.8546447753906
 31
0.0
  0
LINE
  5
2D
330
2A
100
AcDbEntity
  8
0
 62
     0
100
AcDbLine
 10
27.71453285217285
 20
157.8546447753906
 30
0.0
 11
27.95373344421387
 21
158.1090240478516
 31
0.0
  0
LINE
  5
2E
330
2A
100
AcDbEntity
  8
0
 62
     0
100
AcDbLine
 10
27.95373344421387
 20
158.1090240478516
 30
0.0
 11
28.20688438415527
 21
158.5126800537109
 31
0.0
  0
LINE
  5
2F
330
2A
100
AcDbEntity
  8
0
 62
     0
100
AcDbLine
 10
27.95166780147821
 20
158.1068273279698
 30
0.0
 11
28.20688438415527
 21
158.5126800537109
 31
0.0
  0
LINE
  5
30
330
2A
100
AcDbEntity
  8
0
 62
     0
100
AcDbLine
 10
27.95163776454895
 20
158.1067953850213
 30
0.0
 11
28.22216351468654
 21
158.5381612639551
 31
0.0
  0
LINE
  5
31
330
2A
100
AcDbEntity
  8
0
 62
     0
100
AcDbLine
 10
28.20688438415527
 20
158.5126800537109
 30
0.0
 11
28.31500434875488
 21
158.6929931640625
 31
0.0
  0
LINE
  5
32
330
2A
100
AcDbEntity
  8
0
 62
     0
100
AcDbLine
 10
28.43276405334473
 20
158.9883422851562
 30
0.0
 11
28.31500434875488
 21
158.6929931640625
 31
0.0
  0
LINE
  5
33
330
2A
100
AcDbEntity
  8
0
 62
     0
100
AcDbLine
 10
28.65974426269531
 20
160.2989807128906
 30
0.0
 11
28.62007331848145
 21
160.6541442871094
 31
0.0
  0
LINE
  5
34
330
2A
100
AcDbEntity
  8
0
 62
     0
100
AcDbLine
 10
28.64628410339355
 20
160.1256866455078
 30
0.0
 11
28.65938188191675
 21
160.3022250130981
 31
0.0
  0
LINE
  5
35
330
2A
100
AcDbEntity
  8
0
 62
     0
100
AcDbLine
 10
28.64628410339355
 20
160.1256866455078
 30
0.0
 11
28.65974426269531
 21
160.2989807128906
 31
0.0
  0
LINE
  5
36
330
2A
100
AcDbEntity
  8
0
 62
     0
100
AcDbLine
 10
28.64628410339355
 20
160.1256866455078
 30
0.0
 11
28.64419364929199
 21
160.0894012451172
 31
0.0
  0
LINE
  5
37
330
2A
100
AcDbEntity
  8
0
 62
     0
100
AcDbLine
 10
28.64419364929199
 20
160.0894012451172
 30
0.0
 11
28.65974426269531
 21
160.2989807128906
 31
0.0
  0
LINE
  5
38
330
2A
100
AcDbEntity
  8
0
 62
     0
100
AcDbLine
 10
28.43276405334473
 20
158.9883422851562
 30
0.0
 11
28.54532432556152
 21
159.3438110351562
 31
0.0
  0
LINE
  5
39
330
2A
100
AcDbEntity
  8
0
 62
     0
100
AcDbLine
 10
28.54532432556152
 20
159.3438110351562
 30
0.0
 11
28.61900329589844
 21
159.6529998779297
 31
0.0
  0
LINE
  5
3A
330
2A
100
AcDbEntity
  8
0
 62
     0
100
AcDbLine
 10
28.61900329589844
 20
159.6529998779297
 30
0.0
 11
28.64419364929199
 21
160.0894012451172
 31
0.0
  0
LINE
  5
3B
330
2A
100
AcDbEntity
  8
0
 62
     0
100
AcDbLine
 10
28.59600448608398
 20
160.9100036621094
 30
0.0
 11
28.54601287841797
 21
161.0899505615234
 31
0.0
  0
LINE
  5
3C
330
2A
100
AcDbEntity
  8
0
 62
     0
100
AcDbLine
 10
28.33254432678223
 20
161.6869354248047
 30
0.0
 11
28.54601287841797
 21
161.0899505615234
 31
0.0
  0
LINE
  5
3D
330
2A
100
AcDbEntity
  8
0
 62
     0
100
AcDbLine
 10
28.55306500866776
 20
161.0645661213752
 30
0.0
 11
28.33254432678223
 21
161.6869354248047
 31
0.0
  0
LINE
  5
3E
330
2A
100
AcDbEntity
  8
0
 62
     0
100
AcDbLine
 10
28.25700378417969
 20
161.8580017089844
 30
0.0
 11
28.33254432678223
 21
161.6869354248047
 31
0.0
  0
LINE
  5
3F
330
2A
100
AcDbEntity
  8
0
 62
     0
100
AcDbLine
 10
28.33254432678223
 20
161.6869354248047
 30
0.0
 11
28.32186317443848
 21
161.7111206054688
 31
0.0
  0
LINE
  5
40
330
2A
100
AcDbEntity
  8
0
 62
     0
100
AcDbLine
 10
28.32186317443848
 20
161.7111206054688
 30
0.0
 11
28.55306559962424
 21
161.0645639942024
 31
0.0
  0
LINE
  5
41
330
2A
100
AcDbEntity
  8
0
 62
     0
100
AcDbLine
 10
27.98559379577637
 20
162.2490539550781
 30
0.0
 11
28.25700378417969
 21
161.8580017089844
 31
0.0
  0
LINE
  5
42
330
2A
100
AcDbEntity
  8
0
 62
     0
100
AcDbLine
 10
27.82859420776367
 20
162.4812164306641
 30
0.0
 11
27.82823371887207
 21
162.4809112548828
 31
0.0
  0
LINE
  5
43
330
2A
100
AcDbEntity
  8
0
 62
     0
100
AcDbLine
 10
27.82823371887207
 20
162.4809112548828
 30
0.0
 11
27.9630241394043
 21
162.2815704345703
 31
0.0
  0
LINE
  5
44
330
2A
100
AcDbEntity
  8
0
 62
     0
100
AcDbLine
 10
27.9630241394043
 20
162.2815704345703
 30
0.0
 11
27.82859420776367
 21
162.4812164306641
 31
0.0
  0
LINE
  5
45
330
2A
100
AcDbEntity
  8
0
 62
     0
100
AcDbLine
 10
27.82859420776367
 20
162.4812164306641
 30
0.0
 11
27.71569442749023
 21
162.5953521728516
 31
0.0
  0
LINE
  5
46
330
2A
100
AcDbEntity
  8
0
 62
     0
100
AcDbLine
 10
27.71569442749023
 20
162.5953521728516
 30
0.0
 11
27.82823371887207
 21
162.4809112548828
 31
0.0
  0
LINE
  5
47
330
2A
100
AcDbEntity
  8
0
 62
     0
100
AcDbLine
 10
27.69751358032227
 20
162.6145172119141
 30
0.0
 11
27.71569442749023
 21
162.5953521728516
 31
0.0
  0
LINE
  5
48
330
2A
100
AcDbEntity
  8
0
 62
     0
100
AcDbLine
 10
27.82859420776367
 20
162.4812164306641
 30
0.0
 11
27.69751358032227
 21
162.6145172119141
 31
0.0
  0
LINE
  5
49
330
2A
100
AcDbEntity
  8
0
 62
     0
100
AcDbLine
 10
27.9630241394043
 20
162.2815704345703
 30
0.0
 11
27.98559379577637
 21
162.2490539550781
 31
0.0
  0
LINE
  5
4A
330
2A
100
AcDbEntity
  8
0
 62
     0
100
AcDbLine
 10
27.82859420776367
 20
162.4812164306641
 30
0.0
 11
27.98559379577637
 21
162.2490539550781
 31
0.0
  0
LINE
  5
4B
330
2A
100
AcDbEntity
  8
0
 62
     0
100
AcDbLine
 10
27.71569442749023
 20
162.5953521728516
 30
0.0
 11
27.35142197071116
 21
162.948874472515
 31
0.0
  0
LINE
  5
4C
330
2A
100
AcDbEntity
  8
0
 62
     0
100
AcDbLine
 10
27.35149631376256
 20
162.9488260826982
 30
0.0
 11
27.69751358032227
 21
162.6145172119141
 31
0.0
  0
LINE
  5
4D
330
2A
100
AcDbEntity
  8
0
 62
     0
100
AcDbLine
 10
27.69751358032227
 20
162.6145172119141
 30
0.0
 11
27.35621452331543
 21
162.9457550048828
 31
0.0
  0
LINE
  5
4E
330
2A
100
AcDbEntity
  8
0
 62
     0
100
AcDbLine
 10
27.08920288085938
 20
163.1195526123047
 30
0.0
 11
27.35621452331543
 21
162.9457550048828
 31
0.0
  0
LINE
  5
4F
330
2A
100
AcDbEntity
  8
0
 62
     0
100
AcDbLine
 10
26.63841438293457
 20
163.3738250732422
 30
0.0
 11
26.78224470610311
 21
163.3195939078448
 31
0.0
  0
LINE
  5
50
330
2A
100
AcDbEntity
  8
0
 62
     0
100
AcDbLine
 10
26.77669334411621
 20
163.3232116699219
 30
0.0
 11
26.63841438293457
 21
163.3738250732422
 31
0.0
  0
LINE
  5
51
330
2A
100
AcDbEntity
  8
0
 62
     0
100
AcDbLine
 10
26.77669334411621
 20
163.3232116699219
 30
0.0
 11
26.6019229888916
 21
163.3891143798828
 31
0.0
  0
LINE
  5
52
330
2A
100
AcDbEntity
  8
0
 62
     0
100
AcDbLine
 10
26.6019229888916
 20
163.3891143798828
 30
0.0
 11
26.63841438293457
 21
163.3738250732422
 31
0.0
  0
LINE
  5
53
330
2A
100
AcDbEntity
  8
0
 62
     0
100
AcDbLine
 10
26.77669334411621
 20
163.3232116699219
 30
0.0
 11
27.08920288085938
 21
163.1195526123047
 31
0.0
  0
LINE
  5
54
330
2A
100
AcDbEntity
  8
0
 62
     0
100
AcDbLine
 10
26.00317921929953
 20
163.6138999372911
 30
0.0
 11
26.63841438293457
 21
163.3738250732422
 31
0.0
  0
LINE
  5
55
330
2A
100
AcDbEntity
  8
0
 62
     0
100
AcDbLine
 10
26.00324676549321
 20
163.6138925866424
 30
0.0
 11
26.6019229888916
 21
163.3891143798828
 31
0.0
  0
LINE
  5
56
330
2A
100
AcDbEntity
  8
0
 62
     0
100
AcDbLine
 10
26.6019229888916
 20
163.3891143798828
 30
0.0
 11
26.00872421264648
 21
163.6132965087891
 31
0.0
  0
LINE
  5
57
330
2A
100
AcDbEntity
  8
0
 62
     0
100
AcDbLine
 10
25.54587364196777
 20
163.6636657714844
 30
0.0
 11
26.00872421264648
 21
163.6132965087891
 31
0.0
  0
LINE
  5
58
330
2A
100
AcDbEntity
  8
0
 62
     0
100
AcDbLine
 10
24.91300392150879
 20
163.7089996337891
 30
0.0
 11
25.54587364196777
 21
163.6636657714844
 31
0.0
  0
LINE
  5
59
330
2A
100
AcDbEntity
  8
0
 62
     0
100
AcDbLine
 10
24.59877395629883
 20
163.6636657714844
 30
0.0
 11
24.91300392150879
 21
163.7089996337891
 31
0.0
  0
LINE
  5
5A
330
2A
100
AcDbEntity
  8
0
 62
     0
100
AcDbLine
 10
25.96795463562012
 20
156.8457794189453
 30
0.0
 11
26.1019344329834
 21
156.8563385009766
 31
0.0
  0
LINE
  5
5B
330
2A
100
AcDbEntity
  8
0
 62
     0
100
AcDbLine
 10
26.11871195959012
 20
156.8619955023641
 30
0.0
 11
25.96795463562012
 21
156.8457794189453
 31
0.0
  0
LINE
  5
5C
330
2A
100
AcDbEntity
  8
0
 62
     0
100
AcDbLine
 10
26.45555305480957
 20
156.9755706787109
 30
0.0
 11
26.1019344329834
 21
156.8563385009766
 31
0.0
  0
LINE
  5
5D
330
2A
100
AcDbEntity
  8
0
 62
     0
100
AcDbLine
 10
26.74900436401367
 20
157.0989990234375
 30
0.0
 11
26.45555305480957
 21
156.9755706787109
 31
0.0
  0
LINE
  5
5E
330
2A
100
AcDbEntity
  8
0
 62
     0
100
AcDbLine
 10
25.96795463562012
 20
156.8457794189453
 30
0.0
 11
25.91606330871582
 21
156.8363494873047
 31
0.0
  0
LINE
  5
5F
330
2A
100
AcDbEntity
  8
0
 62
     0
100
AcDbLine
 10
26.1019344329834
 20
156.8563385009766
 30
0.0
 11
25.91606330871582
 21
156.8363494873047
 31
0.0
  0
LINE
  5
60
330
2A
100
AcDbEntity
  8
0
 62
     0
100
AcDbLine
 10
25.11174392700195
 20
156.7322235107422
 30
0.0
 11
25.08205413818359
 21
156.7337341308594
 31
0.0
  0
LINE
  5
61
330
2A
100
AcDbEntity
  8
0
 62
     0
100
AcDbLine
 10
25.08205413818359
 20
156.7337341308594
 30
0.0
 11
25.2920036315918
 21
156.7230072021484
 31
0.0
  0
LINE
  5
62
330
2A
100
AcDbEntity
  8
0
 62
     0
100
AcDbLine
 10
25.2920036315918
 20
156.7230072021484
 30
0.0
 11
25.91606330871582
 21
156.8363494873047
 31
0.0
  0
LINE
  5
63
330
2A
100
AcDbEntity
  8
0
 62
     0
100
AcDbLine
 10
24.43709484050136
 20
156.8050016616504
 30
0.0
 11
25.11174392700195
 21
156.7322235107422
 31
0.0
  0
LINE
  5
64
330
2A
100
AcDbEntity
  8
0
 62
     0
100
AcDbLine
 10
25.08205413818359
 20
156.7337341308594
 30
0.0
 11
24.43728167617528
 21
156.8049599811844
 31
0.0
  0
LINE
  5
65
330
2A
100
AcDbEntity
  8
0
 62
     0
100
AcDbLine
 10
24.45170402526855
 20
156.8017425537109
 30
0.0
 11
25.08205413818359
 21
156.7337341308594
 31
0.0
  0
LINE
  5
66
330
2A
100
AcDbEntity
  8
0
 62
     0
100
AcDbLine
 10
24.20102310180664
 20
156.857666015625
 30
0.0
 11
24.45170402526855
 21
156.8017425537109
 31
0.0
  0
LINE
  5
67
330
2A
100
AcDbEntity
  8
0
 62
     0
100
AcDbLine
 10
21.92067337036133
 20
158.926513671875
 30
0.0
 11
21.92114448547363
 21
158.9267272949219
 31
0.0
  0
LINE
  5
68
330
2A
100
AcDbEntity
  8
0
 62
     0
100
AcDbLine
 10
21.92114448547363
 20
158.9267272949219
 30
0.0
 11
21.84674453735352
 21
159.23828125
 31
0.0
  0
LINE
  5
69
330
2A
100
AcDbEntity
  8
0
 62
     0
100
AcDbLine
 10
21.84674453735352
 20
159.23828125
 30
0.0
 11
21.92067337036133
 21
158.926513671875
 31
0.0
  0
LINE
  5
6A
330
2A
100
AcDbEntity
  8
0
 62
     0
100
AcDbLine
 10
21.92067337036133
 20
158.926513671875
 30
0.0
 11
21.9910831451416
 21
158.7823944091797
 31
0.0
  0
LINE
  5
6B
330
2A
100
AcDbEntity
  8
0
 62
     0
100
AcDbLine
 10
21.9910831451416
 20
158.7823944091797
 30
0.0
 11
21.92114448547363
 21
158.9267272949219
 31
0.0
  0
LINE
  5
6C
330
2A
100
AcDbEntity
  8
0
 62
     0
100
AcDbLine
 10
21.84674453735352
 20
159.23828125
 30
0.0
 11
21.83403396606445
 21
159.2893829345703
 31
0.0
  0
LINE
  5
6D
330
2A
100
AcDbEntity
  8
0
 62
     0
100
AcDbLine
 10
21.83403396606445
 20
159.2893829345703
 30
0.0
 11
21.92067337036133
 21
158.926513671875
 31
0.0
  0
LINE
  5
6E
330
2A
100
AcDbEntity
  8
0
 62
     0
100
AcDbLine
 10
21.7169246673584
 20
160.6454772949219
 30
0.0
 11
21.68459305488157
 21
160.4702996989039
 31
0.0
  0
LINE
  5
6F
330
2A
100
AcDbEntity
  8
0
 62
     0
100
AcDbLine
 10
21.6847038269043
 20
160.4779815673828
 30
0.0
 11
21.7169246673584
 21
160.6454772949219
 31
0.0
  0
LINE
  5
70
330
2A
100
AcDbEntity
  8
0
 62
     0
100
AcDbLine
 10
21.7169246673584
 20
160.6454772949219
 30
0.0
 11
21.72284317016602
 21
160.6846008300781
 31
0.0
  0
LINE
  5
71
330
2A
100
AcDbEntity
  8
0
 62
     0
100
AcDbLine
 10
21.72284317016602
 20
160.6846008300781
 30
0.0
 11
21.6847038269043
 21
160.4779815673828
 31
0.0
  0
LINE
  5
72
330
2A
100
AcDbEntity
  8
0
 62
     0
100
AcDbLine
 10
21.6847038269043
 20
160.4779815673828
 30
0.0
 11
21.68100357055664
 21
160.2213745117188
 31
0.0
  0
LINE
  5
73
330
2A
100
AcDbEntity
  8
0
 62
     0
100
AcDbLine
 10
21.68100357055664
 20
160.2213745117188
 30
0.0
 11
21.7024330531829
 21
159.7415489143689
 31
0.0
  0
LINE
  5
74
330
2A
100
AcDbEntity
  8
0
 62
     0
100
AcDbLine
 10
21.70245648641944
 20
159.7414684003959
 30
0.0
 11
21.68128757212365
 21
160.241069581213
 31
0.0
  0
LINE
  5
75
330
2A
100
AcDbEntity
  8
0
 62
     0
100
AcDbLine
 10
21.68100357055664
 20
160.2213745117188
 30
0.0
 11
21.7011547088623
 21
159.7459411621094
 31
0.0
  0
LINE
  5
76
330
2A
100
AcDbEntity
  8
0
 62
     0
100
AcDbLine
 10
21.7011547088623
 20
159.7459411621094
 30
0.0
 11
21.83403396606445
 21
159.2893829345703
 31
0.0
  0
LINE
  5
77
330
2A
100
AcDbEntity
  8
0
 62
     0
100
AcDbLine
 10
21.92067337036133
 20
158.926513671875
 30
0.0
 11
22.00212287902832
 21
158.7584075927734
 31
0.0
  0
LINE
  5
78
330
2A
100
AcDbEntity
  8
0
 62
     0
100
AcDbLine
 10
22.00212287902832
 20
158.7584075927734
 30
0.0
 11
21.9910831451416
 21
158.7823944091797
 31
0.0
  0
LINE
  5
79
330
2A
100
AcDbEntity
  8
0
 62
     0
100
AcDbLine
 10
21.9910831451416
 20
158.7823944091797
 30
0.0
 11
22.22376307829993
 21
158.3304839891013
 31
0.0
  0
LINE
  5
7A
330
2A
100
AcDbEntity
  8
0
 62
     0
100
AcDbLine
 10
22.22370643890777
 20
158.3305557851978
 30
0.0
 11
22.00212287902832
 21
158.7584075927734
 31
0.0
  0
LINE
  5
7B
330
2A
100
AcDbEntity
  8
0
 62
     0
100
AcDbLine
 10
22.22001457214355
 20
158.3352355957031
 30
0.0
 11
22.00212287902832
 21
158.7584075927734
 31
0.0
  0
LINE
  5
7C
330
2A
100
AcDbEntity
  8
0
 62
     0
100
AcDbLine
 10
22.22001457214355
 20
158.3352355957031
 30
0.0
 11
22.45106315612793
 21
158.0423583984375
 31
0.0
  0
LINE
  5
7D
330
2A
100
AcDbEntity
  8
0
 62
     0
100
AcDbLine
 10
22.43856274406419
 20
158.0582039214299
 30
0.0
 11
22.88474322232748
 21
157.5693233881712
 31
0.0
  0
LINE
  5
7E
330
2A
100
AcDbEntity
  8
0
 62
     0
100
AcDbLine
 10
22.45106315612793
 20
158.0423583984375
 30
0.0
 11
22.88468897317898
 21
157.5693636058039
 31
0.0
  0
LINE
  5
7F
330
2A
100
AcDbEntity
  8
0
 62
     0
100
AcDbLine
 10
22.87865447998047
 20
157.5738372802734
 30
0.0
 11
22.45106315612793
 21
158.0423583984375
 31
0.0
  0
LINE
  5
80
330
2A
100
AcDbEntity
  8
0
 62
     0
100
AcDbLine
 10
23.10341453552246
 20
157.4072113037109
 30
0.0
 11
23.64685440063477
 21
157.0803833007812
 31
0.0
  0
LINE
  5
81
330
2A
100
AcDbEntity
  8
0
 62
     0
100
AcDbLine
 10
23.64685440063477
 20
157.0803833007812
 30
0.0
 11
23.09161641524305
 21
157.415957845922
 31
0.0
  0
LINE
  5
82
330
2A
100
AcDbEntity
  8
0
 62
     0
100
AcDbLine
 10
22.87865447998047
 20
157.5738372802734
 30
0.0
 11
23.10341453552246
 21
157.4072113037109
 31
0.0
  0
LINE
  5
83
330
2A
100
AcDbEntity
  8
0
 62
     0
100
AcDbLine
 10
21.79400444030762
 20
161.1549987792969
 30
0.0
 11
21.72284317016602
 21
160.6846008300781
 31
0.0
  0
LINE
  5
84
330
2A
100
AcDbEntity
  8
0
 62
     0
100
AcDbLine
 10
21.94433403015137
 20
161.4963989257812
 30
0.0
 11
21.79400444030762
 21
161.1549987792969
 31
0.0
  0
LINE
  5
85
330
2A
100
AcDbEntity
  8
0
 62
     0
100
AcDbLine
 10
21.94433403015137
 20
161.4963989257812
 30
0.0
 11
21.9230842590332
 21
161.4481201171875
 31
0.0
  0
LINE
  5
86
330
2A
100
AcDbEntity
  8
0
 62
     0
100
AcDbLine
 10
22.26864433288574
 20
162.1752319335938
 30
0.0
 11
21.94433403015137
 21
161.4963989257812
 31
0.0
  0
LINE
  5
87
330
2A
100
AcDbEntity
  8
0
 62
     0
100
AcDbLine
 10
21.94433403015137
 20
161.4963989257812
 30
0.0
 11
22.27297370706277
 21
162.1805392668075
 31
0.0
  0
LINE
  5
88
330
2A
100
AcDbEntity
  8
0
 62
     0
100
AcDbLine
 10
22.47525405883789
 20
162.4285125732422
 30
0.0
 11
22.26864433288574
 21
162.1752319335938
 31
0.0
  0
LINE
  5
89
330
2A
100
AcDbEntity
  8
0
 62
     0
100
AcDbLine
 10
23.39287376403809
 20
163.2299041748047
 30
0.0
 11
22.8878345489502
 21
162.8457641601562
 31
0.0
  0
LINE
  5
8A
330
2A
100
AcDbEntity
  8
0
 62
     0
100
AcDbLine
 10
22.8878345489502
 20
162.8457641601562
 30
0.0
 11
23.3968026081653
 21
163.231722058818
 31
0.0
  0
LINE
  5
8B
330
2A
100
AcDbEntity
  8
0
 62
     0
100
AcDbLine
 10
23.73056411743164
 20
163.3861541748047
 30
0.0
 11
23.39287376403809
 21
163.2299041748047
 31
0.0
  0
LINE
  5
8C
330
2A
100
AcDbEntity
  8
0
 62
     0
100
AcDbLine
 10
24.59877395629883
 20
163.6636657714844
 30
0.0
 11
24.32439422607422
 21
163.6103363037109
 31
0.0
  0
LINE
  5
8D
330
2A
100
AcDbEntity
  8
0
 62
     0
100
AcDbLine
 10
23.73056411743164
 20
163.3861541748047
 30
0.0
 11
24.32986328055426
 21
163.6113992895387
 31
0.0
  0
LINE
  5
8E
330
2A
100
AcDbEntity
  8
0
 62
     0
100
AcDbLine
 10
24.32439422607422
 20
163.6103363037109
 30
0.0
 11
23.73056411743164
 21
163.3861541748047
 31
0.0
  0
LINE
  5
8F
330
2A
100
AcDbEntity
  8
0
 62
     0
100
AcDbLine
 10
24.32992855440643
 20
163.611411976408
 30
0.0
 11
23.71874329313371
 21
163.3806846558267
 31
0.0
  0
LINE
  5
90
330
2A
100
AcDbEntity
  8
0
 62
     0
100
AcDbLine
 10
22.8878345489502
 20
162.8457641601562
 30
0.0
 11
22.85689353942871
 21
162.8210601806641
 31
0.0
  0
LINE
  5
91
330
2A
100
AcDbEntity
  8
0
 62
     0
100
AcDbLine
 10
23.39685683451694
 20
163.231747149459
 30
0.0
 11
22.85689353942871
 21
162.8210601806641
 31
0.0
  0
LINE
  5
92
330
2A
100
AcDbEntity
  8
0
 62
     0
100
AcDbLine
 10
22.8878345489502
 20
162.8457641601562
 30
0.0
 11
22.70195388793945
 21
162.7043304443359
 31
0.0
  0
LINE
  5
93
330
2A
100
AcDbEntity
  8
0
 62
     0
100
AcDbLine
 10
22.85689353942871
 20
162.8210601806641
 30
0.0
 11
22.70195388793945
 21
162.7043304443359
 31
0.0
  0
LINE
  5
94
330
2A
100
AcDbEntity
  8
0
 62
     0
100
AcDbLine
 10
22.85689353942871
 20
162.8210601806641
 30
0.0
 11
22.6993881768519
 21
162.7012088320576
 31
0.0
  0
LINE
  5
95
330
2A
100
AcDbEntity
  8
0
 62
     0
100
AcDbLine
 10
22.70195388793945
 20
162.7043304443359
 30
0.0
 11
22.47525405883789
 21
162.4285125732422
 31
0.0
  0
LINE
  5
96
330
2A
100
AcDbEntity
  8
0
 62
     0
100
AcDbLine
 10
22.27299200800671
 20
162.1805617017378
 30
0.0
 11
21.9230842590332
 21
161.4481201171875
 31
0.0
  0
LINE
  5
97
330
2A
100
AcDbEntity
  8
0
 62
     0
100
AcDbLine
 10
23.09140207790401
 20
157.4161167450126
 30
0.0
 11
23.66053776047006
 21
157.0738427203015
 31
0.0
  0
LINE
  5
98
330
2A
100
AcDbEntity
  8
0
 62
     0
100
AcDbLine
 10
23.64685440063477
 20
157.0803833007812
 30
0.0
 11
23.89939308166504
 21
156.9596710205078
 31
0.0
  0
LINE
  5
99
330
2A
100
AcDbEntity
  8
0
 62
     0
100
AcDbLine
 10
23.89939308166504
 20
156.9596710205078
 30
0.0
 11
24.20102310180664
 21
156.857666015625
 31
0.0
  0
LINE
  5
9A
330
2A
100
AcDbEntity
  8
0
 62
     0
100
AcDbLine
 10
24.20102310180664
 20
156.857666015625
 30
0.0
 11
23.89567049224578
 21
156.9614504004249
 31
0.0
  0
LINE
  5
9B
330
2A
100
AcDbEntity
  8
0
 62
     0
100
AcDbLine
 10
23.89556493088109
 20
156.9615008582518
 30
0.0
 11
24.20568533399912
 21
156.8566259358261
 31
0.0
  0
LINE
  5
9C
330
2A
100
AcDbEntity
  8
0
 62
     0
100
AcDbLine
 10
45.00700378417969
 20
139.9940032958984
 30
0.0
 11
45.00700378417969
 21
181.0
 31
0.0
  0
LINE
  5
9D
330
2A
100
AcDbEntity
  8
0
 62
     0
100
AcDbLine
 10
4.000003814697266
 20
181.0
 30
0.0
 11
45.00700378417969
 21
181.0
 31
0.0
  0
LINE
  5
9E
330
2A
100
AcDbEntity
  8
0
 62
     0
100
AcDbLine
 10
4.000003814697266
 20
181.0
 30
0.0
 11
4.000003814697266
 21
139.9940032958984
 31
0.0
  0
LINE
  5
9F
330
2A
100
AcDbEntity
  8
0
 62
     0
100
AcDbLine
 10
45.00700378417969
 20
139.9940032958984
 30
0.0
 11
4.000003814697266
 21
139.9940032958984
 31
0.0
  0
LINE
  5
A0
330
2A
100
AcDbEntity
  8
0
 62
     0
100
AcDbLine
 10
27.37700462341309
 20
157.5189971923828
 30
0.0
 11
26.74900436401367
 21
157.0989990234375
 31
0.0
  0
LINE
  5
A1
330
2A
100
AcDbEntity
  8
0
 62
     0
100
AcDbLine
 10
31.66900444030762
 20
161.7200012207031
 30
0.0
 11
31.66900444030762
 21
158.718994140625
 31
0.0
  0
LINE
  5
A2
330
2A
100
AcDbEntity
  8
0
 62
     0
100
AcDbLine
 10
31.66900444030762
 20
161.7200012207031
 30
0.0
 11
33.6670036315918
 21
161.7200012207031
 31
0.0
  0
LINE
  5
A3
330
2A
100
AcDbEntity
  8
0
 62
     0
100
AcDbLine
 10
33.6670036315918
 20
158.718994140625
 30
0.0
 11
33.6670036315918
 21
161.7200012207031
 31
0.0
  0
LINE
  5
A4
330
2A
100
AcDbEntity
  8
0
 62
     0
100
AcDbLine
 10
33.6670036315918
 20
158.718994140625
 30
0.0
 11
31.66900444030762
 21
158.718994140625
 31
0.0
  0
LINE
  5
A5
330
2A
100
AcDbEntity
  8
0
 62
     0
100
AcDbLine
 10
16.66500473022461
 20
158.718994140625
 30
0.0
 11
18.66300392150879
 21
158.718994140625
 31
0.0
  0
LINE
  5
A6
330
2A
100
AcDbEntity
  8
0
 62
     0
100
AcDbLine
 10
16.66500473022461
 20
161.7200012207031
 30
0.0
 11
16.66500473022461
 21
158.718994140625
 31
0.0
  0
LINE
  5
A7
330
2A
100
AcDbEntity
  8
0
 62
     0
100
AcDbLine
 10
18.66300392150879
 20
161.7200012207031
 30
0.0
 11
16.66500473022461
 21
161.7200012207031
 31
0.0
  0
LINE
  5
A8
330
2A
100
AcDbEntity
  8
0
 62
     0
100
AcDbLine
 10
18.66300392150879
 20
158.718994140625
 30
0.0
 11
18.66300392150879
 21
161.7200012207031
 31
0.0
  0
LINE
  5
A9
330
2A
100
AcDbEntity
  8
0
 62
     0
100
AcDbLine
 10
26.6660041809082
 20
153.7169952392578
 30
0.0
 11
23.66500473022461
 21
153.7169952392578
 31
0.0
  0
LINE
  5
AA
330
2A
100
AcDbEntity
  8
0
 62
     0
100
AcDbLine
 10
26.6660041809082
 20
153.7169952392578
 30
0.0
 11
26.6660041809082
 21
151.718994140625
 31
0.0
  0
LINE
  5
AB
330
2A
100
AcDbEntity
  8
0
 62
     0
100
AcDbLine
 10
26.6660041809082
 20
151.718994140625
 30
0.0
 11
23.66500473022461
 21
151.718994140625
 31
0.0
  0
LINE
  5
AC
330
2A
100
AcDbEntity
  8
0
 62
     0
100
AcDbLine
 10
23.66500473022461
 20
153.7169952392578
 30
0.0
 11
23.66500473022461
 21
151.718994140625
 31
0.0
  0
LINE
  5
AD
330
2A
100
AcDbEntity
  8
0
 62
     0
100
AcDbLine
 10
23.66500473022461
 20
166.7220001220703
 30
0.0
 11
26.6660041809082
 21
166.7220001220703
 31
0.0
  0
LINE
  5
AE
330
2A
100
AcDbEntity
  8
0
 62
     0
100
AcDbLine
 10
23.66500473022461
 20
168.7200012207031
 30
0.0
 11
23.66500473022461
 21
166.7220001220703
 31
0.0
  0
LINE
  5
AF
330
2A
100
AcDbEntity
  8
0
 62
     0
100
AcDbLine
 10
26.6660041809082
 20
168.7200012207031
 30
0.0
 11
23.66500473022461
 21
168.7200012207031
 31
0.0
  0
LINE
  5
B0
330
2A
100
AcDbEntity
  8
0
 62
     0
100
AcDbLine
 10
26.6660041809082
 20
166.7220001220703
 30
0.0
 11
26.6660041809082
 21
168.7200012207031
 31
0.0
  0
ENDBLK
  5
B1
330
2A
100
AcDbEntity
  8
0
100
AcDbBlockEnd
  0
ENDSEC
  0
SECTION
  2
ENTITIES
  0
LINE
  5
F7
330
1D
100
AcDbEntity
  8
0
 62
     0
100
AcDbLine
 10
28.59600448608398
 20
160.9100036621094
 30
0.0
 11
28.62007331848145
 21
160.6541442871094
 31
0.0
  0
LINE
  5
F8
330
1D
100
AcDbEntity
  8
0
 62
     0
100
AcDbLine
 10
27.37700462341309
 20
157.5189971923828
 30
0.0
 11
27.71453285217285
 21
157.8546447753906
 31
0.0
  0
LINE
  5
F9
330
1D
100
AcDbEntity
  8
0
 62
     0
100
AcDbLine
 10
27.71453285217285
 20
157.8546447753906
 30
0.0
 11
27.95373344421387
 21
158.1090240478516
 31
0.0
  0
LINE
  5
FA
330
1D
100
AcDbEntity
  8
0
 62
     0
100
AcDbLine
 10
27.95373344421387
 20
158.1090240478516
 30
0.0
 11
28.20688438415527
 21
158.5126800537109
 31
0.0
  0
LINE
  5
FB
330
1D
100
AcDbEntity
  8
0
 62
     0
100
AcDbLine
 10
27.95166780147821
 20
158.1068273279698
 30
0.0
 11
28.20688438415527
 21
158.5126800537109
 31
0.0
  0
LINE
  5
FC
330
1D
100
AcDbEntity
  8
0
 62
     0
100
AcDbLine
 10
27.95163776454895
 20
158.1067953850213
 30
0.0
 11
28.22216351468654
 21
158.5381612639551
 31
0.0
  0
LINE
  5
FD
330
1D
100
AcDbEntity
  8
0
 62
     0
100
AcDbLine
 10
28.20688438415527
 20
158.5126800537109
 30
0.0
 11
28.31500434875488
 21
158.6929931640625
 31
0.0
  0
LINE
  5
FE
330
1D
100
AcDbEntity
  8
0
 62
     0
100
AcDbLine
 10
28.43276405334473
 20
158.9883422851562
 30
0.0
 11
28.31500434875488
 21
158.6929931640625
 31
0.0
  0
LINE
  5
FF
330
1D
100
AcDbEntity
  8
0
 62
     0
100
AcDbLine
 10
28.65974426269531
 20
160.2989807128906
 30
0.0
 11
28.62007331848145
 21
160.6541442871094
 31
0.0
  0
LINE
  5
100
330
1D
100
AcDbEntity
  8
0
 62
     0
100
AcDbLine
 10
28.64628410339355
 20
160.1256866455078
 30
0.0
 11
28.65938188191675
 21
160.3022250130981
 31
0.0
  0
LINE
  5
101
330
1D
100
AcDbEntity
  8
0
 62
     0
100
AcDbLine
 10
28.64628410339355
 20
160.1256866455078
 30
0.0
 11
28.65974426269531
 21
160.2989807128906
 31
0.0
  0
LINE
  5
102
330
1D
100
AcDbEntity
  8
0
 62
     0
100
AcDbLine
 10
28.64628410339355
 20
160.1256866455078
 30
0.0
 11
28.64419364929199
 21
160.0894012451172
 31
0.0
  0
LINE
  5
103
330
1D
100
AcDbEntity
  8
0
 62
     0
100
AcDbLine
 10
28.64419364929199
 20
160.0894012451172
 30
0.0
 11
28.65974426269531
 21
160.2989807128906
 31
0.0
  0
LINE
  5
104
330
1D
100
AcDbEntity
  8
0
 62
     0
100
AcDbLine
 10
28.43276405334473
 20
158.9883422851562
 30
0.0
 11
28.54532432556152
 21
159.3438110351562
 31
0.0
  0
LINE
  5
105
330
1D
100
AcDbEntity
  8
0
 62
     0
100
AcDbLine
 10
28.54532432556152
 20
159.3438110351562
 30
0.0
 11
28.61900329589844
 21
159.6529998779297
 31
0.0
  0
LINE
  5
106
330
1D
100
AcDbEntity
  8
0
 62
     0
100
AcDbLine
 10
28.61900329589844
 20
159.6529998779297
 30
0.0
 11
28.64419364929199
 21
160.0894012451172
 31
0.0
  0
LINE
  5
107
330
1D
100
AcDbEntity
  8
0
 62
     0
100
AcDbLine
 10
28.59600448608398
 20
160.9100036621094
 30
0.0
 11
28.54601287841797
 21
161.0899505615234
 31
0.0
  0
LINE
  5
108
330
1D
100
AcDbEntity
  8
0
 62
     0
100
AcDbLine
 10
28.33254432678223
 20
161.6869354248047
 30
0.0
 11
28.54601287841797
 21
161.0899505615234
 31
0.0
  0
LINE
  5
109
330
1D
100
AcDbEntity
  8
0
 62
     0
100
AcDbLine
 10
28.55306500866776
 20
161.0645661213752
 30
0.0
 11
28.33254432678223
 21
161.6869354248047
 31
0.0
  0
LINE
  5
10A
330
1D
100
AcDbEntity
  8
0
 62
     0
100
AcDbLine
 10
28.25700378417969
 20
161.8580017089844
 30
0.0
 11
28.33254432678223
 21
161.6869354248047
 31
0.0
  0
LINE
  5
10B
330
1D
100
AcDbEntity
  8
0
 62
     0
100
AcDbLine
 10
28.33254432678223
 20
161.6869354248047
 30
0.0
 11
28.32186317443848
 21
161.7111206054688
 31
0.0
  0
LINE
  5
10C
330
1D
100
AcDbEntity
  8
0
 62
     0
100
AcDbLine
 10
28.32186317443848
 20
161.7111206054688
 30
0.0
 11
28.55306559962424
 21
161.0645639942024
 31
0.0
  0
LINE
  5
10D
330
1D
100
AcDbEntity
  8
0
 62
     0
100
AcDbLine
 10
27.98559379577637
 20
162.2490539550781
 30
0.0
 11
28.25700378417969
 21
161.8580017089844
 31
0.0
  0
LINE
  5
10E
330
1D
100
AcDbEntity
  8
0
 62
     0
100
AcDbLine
 10
27.82859420776367
 20
162.4812164306641
 30
0.0
 11
27.82823371887207
 21
162.4809112548828
 31
0.0
  0
LINE
  5
10F
330
1D
100
AcDbEntity
  8
0
 62
     0
100
AcDbLine
 10
27.82823371887207
 20
162.4809112548828
 30
0.0
 11
27.9630241394043
 21
162.2815704345703
 31
0.0
  0
LINE
  5
110
330
1D
100
AcDbEntity
  8
0
 62
     0
100
AcDbLine
 10
27.9630241394043
 20
162.2815704345703
 30
0.0
 11
27.82859420776367
 21
162.4812164306641
 31
0.0
  0
LINE
  5
111
330
1D
100
AcDbEntity
  8
0
 62
     0
100
AcDbLine
 10
27.82859420776367
 20
162.4812164306641
 30
0.0
 11
27.71569442749023
 21
162.5953521728516
 31
0.0
  0
LINE
  5
112
330
1D
100
AcDbEntity
  8
0
 62
     0
100
AcDbLine
 10
27.71569442749023
 20
162.5953521728516
 30
0.0
 11
27.82823371887207
 21
162.4809112548828
 31
0.0
  0
LINE
  5
113
330
1D
100
AcDbEntity
  8
0
 62
     0
100
AcDbLine
 10
27.69751358032227
 20
162.6145172119141
 30
0.0
 11
27.71569442749023
 21
162.5953521728516
 31
0.0
  0
LINE
  5
114
330
1D
100
AcDbEntity
  8
0
 62
     0
100
AcDbLine
 10
27.82859420776367
 20
162.4812164306641
 30
0.0
 11
27.69751358032227
 21
162.6145172119141
 31
0.0
  0
LINE
  5
115
330
1D
100
AcDbEntity
  8
0
 62
     0
100
AcDbLine
 10
27.9630241394043
 20
162.2815704345703
 30
0.0
 11
27.98559379577637
 21
162.2490539550781
 31
0.0
  0
LINE
  5
116
330
1D
100
AcDbEntity
  8
0
 62
     0
100
AcDbLine
 10
27.82859420776367
 20
162.4812164306641
 30
0.0
 11
27.98559379577637
 21
162.2490539550781
 31
0.0
  0
LINE
  5
117
330
1D
100
AcDbEntity
  8
0
 62
     0
100
AcDbLine
 10
27.71569442749023
 20
162.5953521728516
 30
0.0
 11
27.35142197071116
 21
162.948874472515
 31
0.0
  0
LINE
  5
118
330
1D
100
AcDbEntity
  8
0
 62
     0
100
AcDbLine
 10
27.35149631376256
 20
162.9488260826982
 30
0.0
 11
27.69751358032227
 21
162.6145172119141
 31
0.0
  0
LINE
  5
119
330
1D
100
AcDbEntity
  8
0
 62
     0
100
AcDbLine
 10
27.69751358032227
 20
162.6145172119141
 30
0.0
 11
27.35621452331543
 21
162.9457550048828
 31
0.0
  0
LINE
  5
11A
330
1D
100
AcDbEntity
  8
0
 62
     0
100
AcDbLine
 10
27.08920288085938
 20
163.1195526123047
 30
0.0
 11
27.35621452331543
 21
162.9457550048828
 31
0.0
  0
LINE
  5
11B
330
1D
100
AcDbEntity
  8
0
 62
     0
100
AcDbLine
 10
26.63841438293457
 20
163.3738250732422
 30
0.0
 11
26.78224470610311
 21
163.3195939078448
 31
0.0
  0
LINE
  5
11C
330
1D
100
AcDbEntity
  8
0
 62
     0
100
AcDbLine
 10
26.77669334411621
 20
163.3232116699219
 30
0.0
 11
26.63841438293457
 21
163.3738250732422
 31
0.0
  0
LINE
  5
11D
330
1D
100
AcDbEntity
  8
0
 62
     0
100
AcDbLine
 10
26.77669334411621
 20
163.3232116699219
 30
0.0
 11
26.6019229888916
 21
163.3891143798828
 31
0.0
  0
LINE
  5
11E
330
1D
100
AcDbEntity
  8
0
 62
     0
100
AcDbLine
 10
26.6019229888916
 20
163.3891143798828
 30
0.0
 11
26.63841438293457
 21
163.3738250732422
 31
0.0
  0
LINE
  5
11F
330
1D
100
AcDbEntity
  8
0
 62
     0
100
AcDbLine
 10
26.77669334411621
 20
163.3232116699219
 30
0.0
 11
27.08920288085938
 21
163.1195526123047
 31
0.0
  0
LINE
  5
120
330
1D
100
AcDbEntity
  8
0
 62
     0
100
AcDbLine
 10
26.00317921929953
 20
163.6138999372911
 30
0.0
 11
26.63841438293457
 21
163.3738250732422
 31
0.0
  0
LINE
  5
121
330
1D
100
AcDbEntity
  8
0
 62
     0
100
AcDbLine
 10
26.00324676549321
 20
163.6138925866424
 30
0.0
 11
26.6019229888916
 21
163.3891143798828
 31
0.0
  0
LINE
  5
122
330
1D
100
AcDbEntity
  8
0
 62
     0
100
AcDbLine
 10
26.6019229888916
 20
163.3891143798828
 30
0.0
 11
26.00872421264648
 21
163.6132965087891
 31
0.0
  0
LINE
  5
123
330
1D
100
AcDbEntity
  8
0
 62
     0
100
AcDbLine
 10
25.54587364196777
 20
163.6636657714844
 30
0.0
 11
26.00872421264648
 21
163.6132965087891
 31
0.0
  0
LINE
  5
124
330
1D
100
AcDbEntity
  8
0
 62
     0
100
AcDbLine
 10
24.91300392150879
 20
163.7089996337891
 30
0.0
 11
25.54587364196777
 21
163.6636657714844
 31
0.0
  0
LINE
  5
125
330
1D
100
AcDbEntity
  8
0
 62
     0
100
AcDbLine
 10
24.59877395629883
 20
163.6636657714844
 30
0.0
 11
24.91300392150879
 21
163.7089996337891
 31
0.0
  0
LINE
  5
126
330
1D
100
AcDbEntity
  8
0
 62
     0
100
AcDbLine
 10
25.96795463562012
 20
156.8457794189453
 30
0.0
 11
26.1019344329834
 21
156.8563385009766
 31
0.0
  0
LINE
  5
127
330
1D
100
AcDbEntity
  8
0
 62
     0
100
AcDbLine
 10
26.11871195959012
 20
156.8619955023641
 30
0.0
 11
25.96795463562012
 21
156.8457794189453
 31
0.0
  0
LINE
  5
128
330
1D
100
AcDbEntity
  8
0
 62
     0
100
AcDbLine
 10
26.45555305480957
 20
156.9755706787109
 30
0.0
 11
26.1019344329834
 21
156.8563385009766
 31
0.0
  0
LINE
  5
129
330
1D
100
AcDbEntity
  8
0
 62
     0
100
AcDbLine
 10
26.74900436401367
 20
157.0989990234375
 30
0.0
 11
26.45555305480957
 21
156.9755706787109
 31
0.0
  0
LINE
  5
12A
330
1D
100
AcDbEntity
  8
0
 62
     0
100
AcDbLine
 10
25.96795463562012
 20
156.8457794189453
 30
0.0
 11
25.91606330871582
 21
156.8363494873047
 31
0.0
  0
LINE
  5
12B
330
1D
100
AcDbEntity
  8
0
 62
     0
100
AcDbLine
 10
26.1019344329834
 20
156.8563385009766
 30
0.0
 11
25.91606330871582
 21
156.8363494873047
 31
0.0
  0
LINE
  5
12C
330
1D
100
AcDbEntity
  8
0
 62
     0
100
AcDbLine
 10
25.11174392700195
 20
156.7322235107422
 30
0.0
 11
25.08205413818359
 21
156.7337341308594
 31
0.0
  0
LINE
  5
12D
330
1D
100
AcDbEntity
  8
0
 62
     0
100
AcDbLine
 10
25.08205413818359
 20
156.7337341308594
 30
0.0
 11
25.2920036315918
 21
156.7230072021484
 31
0.0
  0
LINE
  5
12E
330
1D
100
AcDbEntity
  8
0
 62
     0
100
AcDbLine
 10
25.2920036315918
 20
156.7230072021484
 30
0.0
 11
25.91606330871582
 21
156.8363494873047
 31
0.0
  0
LINE
  5
12F
330
1D
100
AcDbEntity
  8
0
 62
     0
100
AcDbLine
 10
24.43709484050136
 20
156.8050016616504
 30
0.0
 11
25.11174392700195
 21
156.7322235107422
 31
0.0
  0
LINE
  5
130
330
1D
100
AcDbEntity
  8
0
 62
     0
100
AcDbLine
 10
25.08205413818359
 20
156.7337341308594
 30
0.0
 11
24.43728167617528
 21
156.8049599811844
 31
0.0
  0
LINE
  5
131
330
1D
100
AcDbEntity
  8
0
 62
     0
100
AcDbLine
 10
24.45170402526855
 20
156.8017425537109
 30
0.0
 11
25.08205413818359
 21
156.7337341308594
 31
0.0
  0
LINE
  5
132
330
1D
100
AcDbEntity
  8
0
 62
     0
100
AcDbLine
 10
24.20102310180664
 20
156.857666015625
 30
0.0
 11
24.45170402526855
 21
156.8017425537109
 31
0.0
  0
LINE
  5
133
330
1D
100
AcDbEntity
  8
0
 62
     0
100
AcDbLine
 10
21.92067337036133
 20
158.926513671875
 30
0.0
 11
21.92114448547363
 21
158.9267272949219
 31
0.0
  0
LINE
  5
134
330
1D
100
AcDbEntity
  8
0
 62
     0
100
AcDbLine
 10
21.92114448547363
 20
158.9267272949219
 30
0.0
 11
21.84674453735352
 21
159.23828125
 31
0.0
  0
LINE
  5
135
330
1D
100
AcDbEntity
  8
0
 62
     0
100
AcDbLine
 10
21.84674453735352
 20
159.23828125
 30
0.0
 11
21.92067337036133
 21
158.926513671875
 31
0.0
  0
LINE
  5
136
330
1D
100
AcDbEntity
  8
0
 62
     0
100
AcDbLine
 10
21.92067337036133
 20
158.926513671875
 30
0.0
 11
21.9910831451416
 21
158.7823944091797
 31
0.0
  0
LINE
  5
137
330
1D
100
AcDbEntity
  8
0
 62
     0
100
AcDbLine
 10
21.9910831451416
 20
158.7823944091797
 30
0.0
 11
21.92114448547363
 21
158.9267272949219
 31
0.0
  0
LINE
  5
138
330
1D
100
AcDbEntity
  8
0
 62
     0
100
AcDbLine
 10
21.84674453735352
 20
159.23828125
 30
0.0
 11
21.83403396606445
 21
159.2893829345703
 31
0.0
  0
LINE
  5
139
330
1D
100
AcDbEntity
  8
0
 62
     0
100
AcDbLine
 10
21.83403396606445
 20
159.2893829345703
 30
0.0
 11
21.92067337036133
 21
158.926513671875
 31
0.0
  0
LINE
  5
13A
330
1D
100
AcDbEntity
  8
0
 62
     0
100
AcDbLine
 10
21.7169246673584
 20
160.6454772949219
 30
0.0
 11
21.68459305488157
 21
160.4702996989039
 31
0.0
  0
LINE
  5
13B
330
1D
100
AcDbEntity
  8
0
 62
     0
100
AcDbLine
 10
21.6847038269043
 20
160.4779815673828
 30
0.0
 11
21.7169246673584
 21
160.6454772949219
 31
0.0
  0
LINE
  5
13C
330
1D
100
AcDbEntity
  8
0
 62
     0
100
AcDbLine
 10
21.7169246673584
 20
160.6454772949219
 30
0.0
 11
21.72284317016602
 21
160.6846008300781
 31
0.0
  0
LINE
  5
13D
330
1D
100
AcDbEntity
  8
0
 62
     0
100
AcDbLine
 10
21.72284317016602
 20
160.6846008300781
 30
0.0
 11
21.6847038269043
 21
160.4779815673828
 31
0.0
  0
LINE
  5
13E
330
1D
100
AcDbEntity
  8
0
 62
     0
100
AcDbLine
 10
21.6847038269043
 20
160.4779815673828
 30
0.0
 11
21.68100357055664
 21
160.2213745117188
 31
0.0
  0
LINE
  5
13F
330
1D
100
AcDbEntity
  8
0
 62
     0
100
AcDbLine
 10
21.68100357055664
 20
160.2213745117188
 30
0.0
 11
21.7024330531829
 21
159.7415489143689
 31
0.0
  0
LINE
  5
140
330
1D
100
AcDbEntity
  8
0
 62
     0
100
AcDbLine
 10
21.70245648641944
 20
159.7414684003959
 30
0.0
 11
21.68128757212365
 21
160.241069581213
 31
0.0
  0
LINE
  5
141
330
1D
100
AcDbEntity
  8
0
 62
     0
100
AcDbLine
 10
21.68100357055664
 20
160.2213745117188
 30
0.0
 11
21.7011547088623
 21
159.7459411621094
 31
0.0
  0
LINE
  5
142
330
1D
100
AcDbEntity
  8
0
 62
     0
100
AcDbLine
 10
21.7011547088623
 20
159.7459411621094
 30
0.0
 11
21.83403396606445
 21
159.2893829345703
 31
0.0
  0
LINE
  5
143
330
1D
100
AcDbEntity
  8
0
 62
     0
100
AcDbLine
 10
21.92067337036133
 20
158.926513671875
 30
0.0
 11
22.00212287902832
 21
158.7584075927734
 31
0.0
  0
LINE
  5
144
330
1D
100
AcDbEntity
  8
0
 62
     0
100
AcDbLine
 10
22.00212287902832
 20
158.7584075927734
 30
0.0
 11
21.9910831451416
 21
158.7823944091797
 31
0.0
  0
LINE
  5
145
330
1D
100
AcDbEntity
  8
0
 62
     0
100
AcDbLine
 10
21.9910831451416
 20
158.7823944091797
 30
0.0
 11
22.22376307829993
 21
158.3304839891013
 31
0.0
  0
LINE
  5
146
330
1D
100
AcDbEntity
  8
0
 62
     0
100
AcDbLine
 10
22.22370643890777
 20
158.3305557851978
 30
0.0
 11
22.00212287902832
 21
158.7584075927734
 31
0.0
  0
LINE
  5
147
330
1D
100
AcDbEntity
  8
0
 62
     0
100
AcDbLine
 10
22.22001457214355
 20
158.3352355957031
 30
0.0
 11
22.00212287902832
 21
158.7584075927734
 31
0.0
  0
LINE
  5
148
330
1D
100
AcDbEntity
  8
0
 62
     0
100
AcDbLine
 10
22.22001457214355
 20
158.3352355957031
 30
0.0
 11
22.45106315612793
 21
158.0423583984375
 31
0.0
  0
LINE
  5
149
330
1D
100
AcDbEntity
  8
0
 62
     0
100
AcDbLine
 10
22.43856274406419
 20
158.0582039214299
 30
0.0
 11
22.88474322232748
 21
157.5693233881712
 31
0.0
  0
LINE
  5
14A
330
1D
100
AcDbEntity
  8
0
 62
     0
100
AcDbLine
 10
22.45106315612793
 20
158.0423583984375
 30
0.0
 11
22.88468897317898
 21
157.5693636058039
 31
0.0
  0
LINE
  5
14B
330
1D
100
AcDbEntity
  8
0
 62
     0
100
AcDbLine
 10
22.87865447998047
 20
157.5738372802734
 30
0.0
 11
22.45106315612793
 21
158.0423583984375
 31
0.0
  0
LINE
  5
14C
330
1D
100
AcDbEntity
  8
0
 62
     0
100
AcDbLine
 10
23.10341453552246
 20
157.4072113037109
 30
0.0
 11
23.64685440063477
 21
157.0803833007812
 31
0.0
  0
LINE
  5
14D
330
1D
100
AcDbEntity
  8
0
 62
     0
100
AcDbLine
 10
23.64685440063477
 20
157.0803833007812
 30
0.0
 11
23.09161641524305
 21
157.415957845922
 31
0.0
  0
LINE
  5
14E
330
1D
100
AcDbEntity
  8
0
 62
     0
100
AcDbLine
 10
22.87865447998047
 20
157.5738372802734
 30
0.0
 11
23.10341453552246
 21
157.4072113037109
 31
0.0
  0
LINE
  5
14F
330
1D
100
AcDbEntity
  8
0
 62
     0
100
AcDbLine
 10
21.79400444030762
 20
161.1549987792969
 30
0.0
 11
21.72284317016602
 21
160.6846008300781
 31
0.0
  0
LINE
  5
150
330
1D
100
AcDbEntity
  8
0
 62
     0
100
AcDbLine
 10
21.94433403015137
 20
161.4963989257812
 30
0.0
 11
21.79400444030762
 21
161.1549987792969
 31
0.0
  0
LINE
  5
151
330
1D
100
AcDbEntity
  8
0
 62
     0
100
AcDbLine
 10
21.94433403015137
 20
161.4963989257812
 30
0.0
 11
21.9230842590332
 21
161.4481201171875
 31
0.0
  0
LINE
  5
152
330
1D
100
AcDbEntity
  8
0
 62
     0
100
AcDbLine
 10
22.26864433288574
 20
162.1752319335938
 30
0.0
 11
21.94433403015137
 21
161.4963989257812
 31
0.0
  0
LINE
  5
153
330
1D
100
AcDbEntity
  8
0
 62
     0
100
AcDbLine
 10
21.94433403015137
 20
161.4963989257812
 30
0.0
 11
22.27297370706277
 21
162.1805392668075
 31
0.0
  0
LINE
  5
154
330
1D
100
AcDbEntity
  8
0
 62
     0
100
AcDbLine
 10
22.47525405883789
 20
162.4285125732422
 30
0.0
 11
22.26864433288574
 21
162.1752319335938
 31
0.0
  0
LINE
  5
155
330
1D
100
AcDbEntity
  8
0
 62
     0
100
AcDbLine
 10
23.39287376403809
 20
163.2299041748047
 30
0.0
 11
22.8878345489502
 21
162.8457641601562
 31
0.0
  0
LINE
  5
156
330
1D
100
AcDbEntity
  8
0
 62
     0
100
AcDbLine
 10
22.8878345489502
 20
162.8457641601562
 30
0.0
 11
23.3968026081653
 21
163.231722058818
 31
0.0
  0
LINE
  5
157
330
1D
100
AcDbEntity
  8
0
 62
     0
100
AcDbLine
 10
23.73056411743164
 20
163.3861541748047
 30
0.0
 11
23.39287376403809
 21
163.2299041748047
 31
0.0
  0
LINE
  5
158
330
1D
100
AcDbEntity
  8
0
 62
     0
100
AcDbLine
 10
24.59877395629883
 20
163.6636657714844
 30
0.0
 11
24.32439422607422
 21
163.6103363037109
 31
0.0
  0
LINE
  5
159
330
1D
100
AcDbEntity
  8
0
 62
     0
100
AcDbLine
 10
23.73056411743164
 20
163.3861541748047
 30
0.0
 11
24.32986328055426
 21
163.6113992895387
 31
0.0
  0
LINE
  5
15A
330
1D
100
AcDbEntity
  8
0
 62
     0
100
AcDbLine
 10
24.32439422607422
 20
163.6103363037109
 30
0.0
 11
23.73056411743164
 21
163.3861541748047
 31
0.0
  0
LINE
  5
15B
330
1D
100
AcDbEntity
  8
0
 62
     0
100
AcDbLine
 10
24.32992855440643
 20
163.611411976408
 30
0.0
 11
23.71874329313371
 21
163.3806846558267
 31
0.0
  0
LINE
  5
15C
330
1D
100
AcDbEntity
  8
0
 62
     0
100
AcDbLine
 10
22.8878345489502
 20
162.8457641601562
 30
0.0
 11
22.85689353942871
 21
162.8210601806641
 31
0.0
  0
LINE
  5
15D
330
1D
100
AcDbEntity
  8
0
 62
     0
100
AcDbLine
 10
23.39685683451694
 20
163.231747149459
 30
0.0
 11
22.85689353942871
 21
162.8210601806641
 31
0.0
  0
LINE
  5
15E
330
1D
100
AcDbEntity
  8
0
 62
     0
100
AcDbLine
 10
22.8878345489502
 20
162.8457641601562
 30
0.0
 11
22.70195388793945
 21
162.7043304443359
 31
0.0
  0
LINE
  5
15F
330
1D
100
AcDbEntity
  8
0
 62
     0
100
AcDbLine
 10
22.85689353942871
 20
162.8210601806641
 30
0.0
 11
22.70195388793945
 21
162.7043304443359
 31
0.0
  0
LINE
  5
160
330
1D
100
AcDbEntity
  8
0
 62
     0
100
AcDbLine
 10
22.85689353942871
 20
162.8210601806641
 30
0.0
 11
22.6993881768519
 21
162.7012088320576
 31
0.0
  0
LINE
  5
161
330
1D
100
AcDbEntity
  8
0
 62
     0
100
AcDbLine
 10
22.70195388793945
 20
162.7043304443359
 30
0.0
 11
22.47525405883789
 21
162.4285125732422
 31
0.0
  0
LINE
  5
162
330
1D
100
AcDbEntity
  8
0
 62
     0
100
AcDbLine
 10
22.27299200800671
 20
162.1805617017378
 30
0.0
 11
21.9230842590332
 21
161.4481201171875
 31
0.0
  0
LINE
  5
163
330
1D
100
AcDbEntity
  8
0
 62
     0
100
AcDbLine
 10
23.09140207790401
 20
157.4161167450126
 30
0.0
 11
23.66053776047006
 21
157.0738427203015
 31
0.0
  0
LINE
  5
164
330
1D
100
AcDbEntity
  8
0
 62
     0
100
AcDbLine
 10
23.64685440063477
 20
157.0803833007812
 30
0.0
 11
23.89939308166504
 21
156.9596710205078
 31
0.0
  0
LINE
  5
165
330
1D
100
AcDbEntity
  8
0
 62
     0
100
AcDbLine
 10
23.89939308166504
 20
156.9596710205078
 30
0.0
 11
24.20102310180664
 21
156.857666015625
 31
0.0
  0
LINE
  5
166
330
1D
100
AcDbEntity
  8
0
 62
     0
100
AcDbLine
 10
24.20102310180664
 20
156.857666015625
 30
0.0
 11
23.89567049224578
 21
156.9614504004249
 31
0.0
  0
LINE
  5
167
330
1D
100
AcDbEntity
  8
0
 62
     0
100
AcDbLine
 10
23.89556493088109
 20
156.9615008582518
 30
0.0
 11
24.20568533399912
 21
156.8566259358261
 31
0.0
  0
LINE
  5
168
330
1D
100
AcDbEntity
  8
0
 62
     0
100
AcDbLine
 10
45.00700378417969
 20
139.9940032958984
 30
0.0
 11
45.00700378417969
 21
181.0
 31
0.0
  0
LINE
  5
169
330
1D
100
AcDbEntity
  8
0
 62
     0
100
AcDbLine
 10
4.000003814697266
 20
181.0
 30
0.0
 11
45.00700378417969
 21
181.0
 31
0.0
  0
LINE
  5
16A
330
1D
100
AcDbEntity
  8
0
 62
     0
100
AcDbLine
 10
4.000003814697266
 20
181.0
 30
0.0
 11
4.000003814697266
 21
139.9940032958984
 31
0.0
  0
LINE
  5
16B
330
1D
100
AcDbEntity
  8
0
 62
     0
100
AcDbLine
 10
45.00700378417969
 20
139.9940032958984
 30
0.0
 11
4.000003814697266
 21
139.9940032958984
 31
0.0
  0
LINE
  5
16C
330
1D
100
AcDbEntity
  8
0
 62
     0
100
AcDbLine
 10
27.37700462341309
 20
157.5189971923828
 30
0.0
 11
26.74900436401367
 21
157.0989990234375
 31
0.0
  0
LINE
  5
16D
330
1D
100
AcDbEntity
  8
0
 62
     0
100
AcDbLine
 10
31.66900444030762
 20
161.7200012207031
 30
0.0
 11
31.66900444030762
 21
158.718994140625
 31
0.0
  0
LINE
  5
16E
330
1D
100
AcDbEntity
  8
0
 62
     0
100
AcDbLine
 10
31.66900444030762
 20
161.7200012207031
 30
0.0
 11
33.6670036315918
 21
161.7200012207031
 31
0.0
  0
LINE
  5
16F
330
1D
100
AcDbEntity
  8
0
 62
     0
100
AcDbLine
 10
33.6670036315918
 20
158.718994140625
 30
0.0
 11
33.6670036315918
 21
161.7200012207031
 31
0.0
  0
LINE
  5
170
330
1D
100
AcDbEntity
  8
0
 62
     0
100
AcDbLine
 10
33.6670036315918
 20
158.718994140625
 30
0.0
 11
31.66900444030762
 21
158.718994140625
 31
0.0
  0
LINE
  5
171
330
1D
100
AcDbEntity
  8
0
 62
     0
100
AcDbLine
 10
16.66500473022461
 20
158.718994140625
 30
0.0
 11
18.66300392150879
 21
158.718994140625
 31
0.0
  0
LINE
  5
172
330
1D
100
AcDbEntity
  8
0
 62
     0
100
AcDbLine
 10
16.66500473022461
 20
161.7200012207031
 30
0.0
 11
16.66500473022461
 21
158.718994140625
 31
0.0
  0
LINE
  5
173
330
1D
100
AcDbEntity
  8
0
 62
     0
100
AcDbLine
 10
18.66300392150879
 20
161.7200012207031
 30
0.0
 11
16.66500473022461
 21
161.7200012207031
 31
0.0
  0
LINE
  5
174
330
1D
100
AcDbEntity
  8
0
 62
     0
100
AcDbLine
 10
18.66300392150879
 20
158.718994140625
 30
0.0
 11
18.66300392150879
 21
161.7200012207031
 31
0.0
  0
LINE
  5
175
330
1D
100
AcDbEntity
  8
0
 62
     0
100
AcDbLine
 10
26.6660041809082
 20
153.7169952392578
 30
0.0
 11
23.66500473022461
 21
153.7169952392578
 31
0.0
  0
LINE
  5
176
330
1D
100
AcDbEntity
  8
0
 62
     0
100
AcDbLine
 10
26.6660041809082
 20
153.7169952392578
 30
0.0
 11
26.6660041809082
 21
151.718994140625
 31
0.0
  0
LINE
  5
177
330
1D
100
AcDbEntity
  8
0
 62
     0
100
AcDbLine
 10
26.6660041809082
 20
151.718994140625
 30
0.0
 11
23.66500473022461
 21
151.718994140625
 31
0.0
  0
LINE
  5
178
330
1D
100
AcDbEntity
  8
0
 62
     0
100
AcDbLine
 10
23.66500473022461
 20
153.7169952392578
 30
0.0
 11
23.66500473022461
 21
151.718994140625
 31
0.0
  0
LINE
  5
179
330
1D
100
AcDbEntity
  8
0
 62
     0
100
AcDbLine
 10
23.66500473022461
 20
166.7220001220703
 30
0.0
 11
26.6660041809082
 21
166.7220001220703
 31
0.0
  0
LINE
  5
17A
330
1D
100
AcDbEntity
  8
0
 62
     0
100
AcDbLine
 10
23.66500473022461
 20
168.7200012207031
 30
0.0
 11
23.66500473022461
 21
166.7220001220703
 31
0.0
  0
LINE
  5
17B
330
1D
100
AcDbEntity
  8
0
 62
     0
100
AcDbLine
 10
26.6660041809082
 20
168.7200012207031
 30
0.0
 11
23.66500473022461
 21
168.7200012207031
 31
0.0
  0
LINE
  5
17C
330
1D
100
AcDbEntity
  8
0
 62
     0
100
AcDbLine
 10
26.6660041809082
 20
166.7220001220703
 30
0.0
 11
26.6660041809082
 21
168.7200012207031
 31
0.0
  0
ENDSEC
  0
SECTION
  2
OBJECTS
  0
DICTIONARY
  5
C
330
0
100
AcDbDictionary
281
     1
  3
ACAD_DETAILVIEWSTYLE
350
187
  3
ACAD_GROUP
350
D
  3
ACAD_LAYOUT
350
1A
  3
ACAD_MATERIAL
350
22
  3
ACAD_MLEADERSTYLE
350
F4
  3
ACAD_MLINESTYLE
350
17
  3
ACAD_PLOTSETTINGS
350
19
  3
ACAD_PLOTSTYLENAME
350
E
  3
ACAD_SCALELIST
350
B3
  3
ACAD_SECTIONVIEWSTYLE
350
188
  3
ACAD_TABLESTYLE
350
F2
  3
ACDB_RECOMPOSE_DATA
350
183
  3
AcDbVariableDictionary
350
17D
  3
APPDATA
350
F6
  0
DICTIONARY
  5
187
102
{ACAD_REACTORS
330
C
102
}
330
C
100
AcDbDictionary
281
     1
  0
DICTIONARY
  5
D
102
{ACAD_REACTORS
330
C
102
}
330
C
100
AcDbDictionary
281
     1
  0
DICTIONARY
  5
1A
102
{ACAD_REACTORS
330
C
102
}
330
C
100
AcDbDictionary
281
     1
  3
alma Sayfas 1
350
1C
  3
Model
350
1E
  0
DICTIONARY
  5
22
102
{ACAD_REACTORS
330
C
102
}
330
C
100
AcDbDictionary
281
     1
  3
ByBlock
350
24
  3
ByLayer
350
23
  3
Global
350
25
  0
DICTIONARY
  5
F4
102
{ACAD_REACTORS
330
C
102
}
330
C
100
AcDbDictionary
281
     1
  3
Standard
350
F5
  0
DICTIONARY
  5
17
102
{ACAD_REACTORS
330
C
102
}
330
C
100
AcDbDictionary
281
     1
  3
Standard
350
18
  0
DICTIONARY
  5
19
102
{ACAD_REACTORS
330
C
102
}
330
C
100
AcDbDictionary
281
     1
  0
ACDBDICTIONARYWDFLT
  5
E
102
{ACAD_REACTORS
330
C
102
}
330
C
100
AcDbDictionary
281
     1
  3
Normal
350
F
100
AcDbDictionaryWithDefault
340
F
  0
DICTIONARY
  5
B3
102
{ACAD_REACTORS
330
C
102
}
330
C
100
AcDbDictionary
281
     1
  3
A0
350
B4
  3
A1
350
B5
  3
A2
350
B6
  3
A3
350
B7
  3
A4
350
B8
  3
A5
350
B9
  3
A6
350
BA
  3
A7
350
BB
  3
A8
350
BC
  3
A9
350
BD
  3
B0
350
BE
  3
B1
350
BF
  3
B2
350
C0
  3
B3
350
C1
  3
B4
350
C2
  3
B5
350
C3
  3
B6
350
C4
  3
B7
350
C5
  3
B8
350
C6
  3
B9
350
C7
  3
C0
350
C8
  3
C1
350
C9
  3
C2
350
CA
  3
C3
350
CB
  3
C4
350
CC
  3
C5
350
CD
  3
C6
350
CE
  3
C7
350
CF
  3
C8
350
D0
  3
C9
350
D1
  3
D0
350
D2
  3
D1
350
D3
  3
D2
350
D4
  0
DICTIONARY
  5
188
102
{ACAD_REACTORS
330
C
102
}
330
C
100
AcDbDictionary
281
     1
  0
DICTIONARY
  5
F2
102
{ACAD_REACTORS
330
C
102
}
330
C
100
AcDbDictionary
281
     1
  3
Standard
350
F3
  0
XRECORD
  5
183
102
{ACAD_REACTORS
330
C
102
}
330
C
100
AcDbXrecord
280
     1
 90
        1
330
F3
  0
DICTIONARY
  5
17D
102
{ACAD_REACTORS
330
C
102
}
330
C
100
AcDbDictionary
281
     1
  3
CANNOSCALE
350
17E
  3
CMLEADERSTYLE
350
185
  3
CTABLESTYLE
350
184
  3
MSLTSCALE
350
186
  0
DICTIONARY
  5
F6
102
{ACAD_REACTORS
330
C
102
}
330
C
100
AcDbDictionary
281
     1
  0
LAYOUT
  5
1C
102
{ACAD_REACTORS
330
1A
102
}
330
1A
100
AcDbPlotSettings
  1

  2
none_device
  4

  6

 40
0.0
 41
0.0
 42
0.0
 43
0.0
 44
0.0
 45
0.0
 46
0.0
 47
0.0
 48
0.0
 49
0.0
140
0.0
141
0.0
142
1.0
143
1.0
 70
   688
 72
     0
 73
     0
 74
     5
  7

 75
    16
 76
     0
 77
     2
 78
   300
147
1.0
148
0.0
149
0.0
100
AcDbLayout
  1
alma Sayfas 1
 70
     1
 71
     1
 10
0.0
 20
0.0
 11
0.0
 21
0.0
 12
0.0
 22
0.0
 32
0.0
 14
1.000000000000000E+20
 24
1.000000000000000E+20
 34
1.000000000000000E+20
 15
-1.000000000000000E+20
 25
-1.000000000000000E+20
 35
-1.000000000000000E+20
146
0.0
 13
0.0
 23
0.0
 33
0.0
 16
1.0
 26
0.0
 36
0.0
 17
0.0
 27
1.0
 37
0.0
 76
     0
330
1B
  0
LAYOUT
  5
1E
102
{ACAD_REACTORS
330
1A
102
}
330
1A
100
AcDbPlotSettings
  1

  2
none_device
  4
Letter_(8.50_x_11.00_Inches)
  6

 40
6.35
 41
6.35
 42
6.35
 43
6.35
 44
215.9
 45
279.4
 46
0.0
 47
0.0
 48
0.0
 49
0.0
140
0.0
141
0.0
142
1.0
143
1.0
 70
  1712
 72
     0
 73
     0
 74
     0
  7

 75
     0
 76
     0
 77
     2
 78
   300
147
1.0
148
0.0
149
0.0
100
AcDbLayout
  1
Model
 70
     1
 71
     0
 10
0.0
 20
0.0
 11
12.0
 21
9.0
 12
0.0
 22
0.0
 32
0.0
 14
4.000003814697266
 24
139.9940032958984
 34
0.0
 15
45.00700378417969
 25
181.0
 35
0.0
146
0.0
 13
0.0
 23
0.0
 33
0.0
 16
1.0
 26
0.0
 36
0.0
 17
0.0
 27
1.0
 37
0.0
 76
     0
330
1D
331
28
  0
MATERIAL
  5
24
102
{ACAD_REACTORS
330
22
102
}
330
22
100
AcDbMaterial
  1
ByBlock
  0
MATERIAL
  5
23
102
{ACAD_REACTORS
330
22
102
}
330
22
100
AcDbMaterial
  1
ByLayer
  0
MATERIAL
  5
25
102
{ACAD_REACTORS
330
22
102
}
330
22
100
AcDbMaterial
  1
Global
  0
MLEADERSTYLE
  5
F5
102
{ACAD_REACTORS
330
F4
102
}
330
F4
100
AcDbMLeaderStyle
170
     2
171
     1
172
     0
 90
        2
 40
0.0
 41
0.0
173
     1
 91
-1056964608
340
14
 92
       -2
290
     1
 42
0.09
291
     1
 43
0.36
  3
Standard
341
0
 44
0.18
300

342
11
174
     1
178
     1
175
     1
176
     0
 93
-1056964608
 45
0.18
292
     0
297
     0
 46
0.18
343
0
 94
-1056964608
 47
1.0
 49
1.0
140
1.0
293
     1
141
0.0
294
     1
177
     0
142
1.0
295
     0
296
     0
143
0.125
1001
ACAD_MLEADERVER
1070
     2
  0
MLINESTYLE
  5
18
102
{ACAD_REACTORS
330
17
102
}
330
17
100
AcDbMlineStyle
  2
Standard
 70
     0
  3

 62
   256
 51
90.0
 52
90.0
 71
     2
 49
0.5
 62
   256
  6
BYLAYER
 49
-0.5
 62
   256
  6
BYLAYER
  0
ACDBPLACEHOLDER
  5
F
102
{ACAD_REACTORS
330
E
102
}
330
E
  0
SCALE
  5
B4
102
{ACAD_REACTORS
330
B3
102
}
330
B3
100
AcDbScale
 70
     0
300
1:1
140
1.0
141
1.0
290
     1
  0
SCALE
  5
B5
102
{ACAD_REACTORS
330
B3
102
}
330
B3
100
AcDbScale
 70
     0
300
1:2
140
1.0
141
2.0
290
     0
  0
SCALE
  5
B6
102
{ACAD_REACTORS
330
B3
102
}
330
B3
100
AcDbScale
 70
     0
300
1:4
140
1.0
141
4.0
290
     0
  0
SCALE
  5
B7
102
{ACAD_REACTORS
330
B3
102
}
330
B3
100
AcDbScale
 70
     0
300
1:5
140
1.0
141
5.0
290
     0
  0
SCALE
  5
B8
102
{ACAD_REACTORS
330
B3
102
}
330
B3
100
AcDbScale
 70
     0
300
1:8
140
1.0
141
8.0
290
     0
  0
SCALE
  5
B9
102
{ACAD_REACTORS
330
B3
102
}
330
B3
100
AcDbScale
 70
     0
300
1:10
140
1.0
141
10.0
290
     0
  0
SCALE
  5
BA
102
{ACAD_REACTORS
330
B3
102
}
330
B3
100
AcDbScale
 70
     0
300
1:16
140
1.0
141
16.0
290
     0
  0
SCALE
  5
BB
102
{ACAD_REACTORS
330
B3
102
}
330
B3
100
AcDbScale
 70
     0
300
1:20
140
1.0
141
20.0
290
     0
  0
SCALE
  5
BC
102
{ACAD_REACTORS
330
B3
102
}
330
B3
100
AcDbScale
 70
     0
300
1:30
140
1.0
141
30.0
290
     0
  0
SCALE
  5
BD
102
{ACAD_REACTORS
330
B3
102
}
330
B3
100
AcDbScale
 70
     0
300
1:40
140
1.0
141
40.0
290
     0
  0
SCALE
  5
BE
102
{ACAD_REACTORS
330
B3
102
}
330
B3
100
AcDbScale
 70
     0
300
1:50
140
1.0
141
50.0
290
     0
  0
SCALE
  5
BF
102
{ACAD_REACTORS
330
B3
102
}
330
B3
100
AcDbScale
 70
     0
300
1:100
140
1.0
141
100.0
290
     0
  0
SCALE
  5
C0
102
{ACAD_REACTORS
330
B3
102
}
330
B3
100
AcDbScale
 70
     0
300
2:1
140
2.0
141
1.0
290
     0
  0
SCALE
  5
C1
102
{ACAD_REACTORS
330
B3
102
}
330
B3
100
AcDbScale
 70
     0
300
4:1
140
4.0
141
1.0
290
     0
  0
SCALE
  5
C2
102
{ACAD_REACTORS
330
B3
102
}
330
B3
100
AcDbScale
 70
     0
300
8:1
140
8.0
141
1.0
290
     0
  0
SCALE
  5
C3
102
{ACAD_REACTORS
330
B3
102
}
330
B3
100
AcDbScale
 70
     0
300
10:1
140
10.0
141
1.0
290
     0
  0
SCALE
  5
C4
102
{ACAD_REACTORS
330
B3
102
}
330
B3
100
AcDbScale
 70
     0
300
100:1
140
100.0
141
1.0
290
     0
  0
SCALE
  5
C5
102
{ACAD_REACTORS
330
B3
102
}
330
B3
100
AcDbScale
 70
     0
300
1/128" = 1'-0"
140
0.0078125
141
12.0
290
     0
  0
SCALE
  5
C6
102
{ACAD_REACTORS
330
B3
102
}
330
B3
100
AcDbScale
 70
     0
300
1/64" = 1'-0"
140
0.015625
141
12.0
290
     0
  0
SCALE
  5
C7
102
{ACAD_REACTORS
330
B3
102
}
330
B3
100
AcDbScale
 70
     0
300
1/32" = 1'-0"
140
0.03125
141
12.0
290
     0
  0
SCALE
  5
C8
102
{ACAD_REACTORS
330
B3
102
}
330
B3
100
AcDbScale
 70
     0
300
1/16" = 1'-0"
140
0.0625
141
12.0
290
     0
  0
SCALE
  5
C9
102
{ACAD_REACTORS
330
B3
102
}
330
B3
100
AcDbScale
 70
     0
300
3/32" = 1'-0"
140
0.09375
141
12.0
290
     0
  0
SCALE
  5
CA
102
{ACAD_REACTORS
330
B3
102
}
330
B3
100
AcDbScale
 70
     0
300
1/8" = 1'-0"
140
0.125
141
12.0
290
     0
  0
SCALE
  5
CB
102
{ACAD_REACTORS
330
B3
102
}
330
B3
100
AcDbScale
 70
     0
300
3/16" = 1'-0"
140
0.1875
141
12.0
290
     0
  0
SCALE
  5
CC
102
{ACAD_REACTORS
330
B3
102
}
330
B3
100
AcDbScale
 70
     0
300
1/4" = 1'-0"
140
0.25
141
12.0
290
     0
  0
SCALE
  5
CD
102
{ACAD_REACTORS
330
B3
102
}
330
B3
100
AcDbScale
 70
     0
300
3/8" = 1'-0"
140
0.375
141
12.0
290
     0
  0
SCALE
  5
CE
102
{ACAD_REACTORS
330
B3
102
}
330
B3
100
AcDbScale
 70
     0
300
1/2" = 1'-0"
140
0.5
141
12.0
290
     0
  0
SCALE
  5
CF
102
{ACAD_REACTORS
330
B3
102
}
330
B3
100
AcDbScale
 70
     0
300
3/4" = 1'-0"
140
0.75
141
12.0
290
     0
  0
SCALE
  5
D0
102
{ACAD_REACTORS
330
B3
102
}
330
B3
100
AcDbScale
 70
     0
300
1" = 1'-0"
140
1.0
141
12.0
290
     0
  0
SCALE
  5
D1
102
{ACAD_REACTORS
330
B3
102
}
330
B3
100
AcDbScale
 70
     0
300
1-1/2" = 1'-0"
140
1.5
141
12.0
290
     0
  0
SCALE
  5
D2
102
{ACAD_REACTORS
330
B3
102
}
330
B3
100
AcDbScale
 70
     0
300
3" = 1'-0"
140
3.0
141
12.0
290
     0
  0
SCALE
  5
D3
102
{ACAD_REACTORS
330
B3
102
}
330
B3
100
AcDbScale
 70
     0
300
6" = 1'-0"
140
6.0
141
12.0
290
     0
  0
SCALE
  5
D4
102
{ACAD_REACTORS
330
B3
102
}
330
B3
100
AcDbScale
 70
     0
300
1'-0" = 1'-0"
140
12.0
141
12.0
290
     0
  0
TABLESTYLE
  5
F3
102
{ACAD_REACTORS
330
F2
102
}
102
{ACAD_XDICTIONARY
360
17F
102
}
330
F2
100
AcDbTableStyle
  3
Standard
 70
     0
 71
     0
 40
0.06
 41
0.06
280
     0
281
     0
  7
STANDARD
140
0.18
170
     2
 62
     0
 63
   257
283
     0
274
    -2
284
     1
 64
     0
275
    -2
285
     1
 65
     0
276
    -2
286
     1
 66
     0
277
    -2
287
     1
 67
     0
278
    -2
288
     1
 68
     0
279
    -2
289
     1
 69
     0
  7
STANDARD
140
0.25
170
     5
 62
     0
 63
   257
283
     0
274
    -2
284
     1
 64
     0
275
    -2
285
     1
 65
     0
276
    -2
286
     1
 66
     0
277
    -2
287
     1
 67
     0
278
    -2
288
     1
 68
     0
279
    -2
289
     1
 69
     0
  7
STANDARD
140
0.18
170
     5
 62
     0
 63
   257
283
     0
274
    -2
284
     1
 64
     0
275
    -2
285
     1
 65
     0
276
    -2
286
     1
 66
     0
277
    -2
287
     1
 67
     0
278
    -2
288
     1
 68
     0
279
    -2
289
     1
 69
     0
  0
DICTIONARYVAR
  5
17E
102
{ACAD_REACTORS
330
17D
102
}
330
17D
100
DictionaryVariables
280
     0
  1
1:1
  0
DICTIONARYVAR
  5
185
102
{ACAD_REACTORS
330
17D
102
}
330
17D
100
DictionaryVariables
280
     0
  1
Standard
  0
DICTIONARYVAR
  5
184
102
{ACAD_REACTORS
330
17D
102
}
330
17D
100
DictionaryVariables
280
     0
  1
Standard
  0
DICTIONARYVAR
  5
186
102
{ACAD_REACTORS
330
17D
102
}
330
17D
100
DictionaryVariables
280
     0
  1
0
  0
DICTIONARY
  5
17F
330
F3
100
AcDbDictionary
280
     1
281
     1
  3
ACAD_ROUNDTRIP_2008_TABLESTYLE_CELLSTYLEMAP
360
181
  3
ACAD_XREC_ROUNDTRIP
360
180
  0
CELLSTYLEMAP
  5
181
102
{ACAD_REACTORS
330
17F
102
}
330
17F
100
AcDbCellStyleMap
 90
        3
300
CELLSTYLE
  1
TABLEFORMAT_BEGIN
 90
        5
170
     1
 91
        0
 92
    32768
 62
   257
 93
        1
300
CONTENTFORMAT
  1
CONTENTFORMAT_BEGIN
 90
        0
 91
        0
 92
        4
 93
        0
300

 40
0.0
140
1.0
 94
        5
 62
     0
340
11
144
0.25
309
CONTENTFORMAT_END
171
     1
301
MARGIN
  1
CELLMARGIN_BEGIN
 40
0.06
 40
0.06
 40
0.06
 40
0.06
 40
0.06
 40
0.06
309
CELLMARGIN_END
 94
        6
 95
        1
302
GRIDFORMAT
  1
GRIDFORMAT_BEGIN
 90
        0
 91
        1
 62
     0
 92
       -2
340
14
 93
        0
 40
0.045
309
GRIDFORMAT_END
 95
        2
302
GRIDFORMAT
  1
GRIDFORMAT_BEGIN
 90
        0
 91
        1
 62
     0
 92
       -2
340
14
 93
        0
 40
0.045
309
GRIDFORMAT_END
 95
        4
302
GRIDFORMAT
  1
GRIDFORMAT_BEGIN
 90
        0
 91
        1
 62
     0
 92
       -2
340
14
 93
        0
 40
0.045
309
GRIDFORMAT_END
 95
        8
302
GRIDFORMAT
  1
GRIDFORMAT_BEGIN
 90
        0
 91
        1
 62
     0
 92
       -2
340
14
 93
        0
 40
0.045
309
GRIDFORMAT_END
 95
       16
302
GRIDFORMAT
  1
GRIDFORMAT_BEGIN
 90
        0
 91
        1
 62
     0
 92
       -2
340
14
 93
        0
 40
0.045
309
GRIDFORMAT_END
 95
       32
302
GRIDFORMAT
  1
GRIDFORMAT_BEGIN
 90
        0
 91
        1
 62
     0
 92
       -2
340
14
 93
        0
 40
0.045
309
GRIDFORMAT_END
309
TABLEFORMAT_END
  1
CELLSTYLE_BEGIN
 90
        1
 91
        1
300
_TITLE
309
CELLSTYLE_END
300
CELLSTYLE
  1
TABLEFORMAT_BEGIN
 90
        5
170
     1
 91
        0
 92
        0
 62
   257
 93
        1
300
CONTENTFORMAT
  1
CONTENTFORMAT_BEGIN
 90
        0
 91
        0
 92
        4
 93
        0
300

 40
0.0
140
1.0
 94
        5
 62
     0
340
11
144
0.18
309
CONTENTFORMAT_END
171
     1
301
MARGIN
  1
CELLMARGIN_BEGIN
 40
0.06
 40
0.06
 40
0.06
 40
0.06
 40
0.06
 40
0.06
309
CELLMARGIN_END
 94
        6
 95
        1
302
GRIDFORMAT
  1
GRIDFORMAT_BEGIN
 90
        0
 91
        1
 62
     0
 92
       -2
340
14
 93
        0
 40
0.045
309
GRIDFORMAT_END
 95
        2
302
GRIDFORMAT
  1
GRIDFORMAT_BEGIN
 90
        0
 91
        1
 62
     0
 92
       -2
340
14
 93
        0
 40
0.045
309
GRIDFORMAT_END
 95
        4
302
GRIDFORMAT
  1
GRIDFORMAT_BEGIN
 90
        0
 91
        1
 62
     0
 92
       -2
340
14
 93
        0
 40
0.045
309
GRIDFORMAT_END
 95
        8
302
GRIDFORMAT
  1
GRIDFORMAT_BEGIN
 90
        0
 91
        1
 62
     0
 92
       -2
340
14
 93
        0
 40
0.045
309
GRIDFORMAT_END
 95
       16
302
GRIDFORMAT
  1
GRIDFORMAT_BEGIN
 90
        0
 91
        1
 62
     0
 92
       -2
340
14
 93
        0
 40
0.045
309
GRIDFORMAT_END
 95
       32
302
GRIDFORMAT
  1
GRIDFORMAT_BEGIN
 90
        0
 91
        1
 62
     0
 92
       -2
340
14
 93
        0
 40
0.045
309
GRIDFORMAT_END
309
TABLEFORMAT_END
  1
CELLSTYLE_BEGIN
 90
        2
 91
        1
300
_HEADER
309
CELLSTYLE_END
300
CELLSTYLE
  1
TABLEFORMAT_BEGIN
 90
        5
170
     1
 91
        0
 92
        0
 62
   257
 93
        1
300
CONTENTFORMAT
  1
CONTENTFORMAT_BEGIN
 90
        0
 91
        0
 92
        4
 93
        0
300

 40
0.0
140
1.0
 94
        2
 62
     0
340
11
144
0.18
309
CONTENTFORMAT_END
171
     1
301
MARGIN
  1
CELLMARGIN_BEGIN
 40
0.06
 40
0.06
 40
0.06
 40
0.06
 40
0.06
 40
0.06
309
CELLMARGIN_END
 94
        6
 95
        1
302
GRIDFORMAT
  1
GRIDFORMAT_BEGIN
 90
        0
 91
        1
 62
     0
 92
       -2
340
14
 93
        0
 40
0.045
309
GRIDFORMAT_END
 95
        2
302
GRIDFORMAT
  1
GRIDFORMAT_BEGIN
 90
        0
 91
        1
 62
     0
 92
       -2
340
14
 93
        0
 40
0.045
309
GRIDFORMAT_END
 95
        4
302
GRIDFORMAT
  1
GRIDFORMAT_BEGIN
 90
        0
 91
        1
 62
     0
 92
       -2
340
14
 93
        0
 40
0.045
309
GRIDFORMAT_END
 95
        8
302
GRIDFORMAT
  1
GRIDFORMAT_BEGIN
 90
        0
 91
        1
 62
     0
 92
       -2
340
14
 93
        0
 40
0.045
309
GRIDFORMAT_END
 95
       16
302
GRIDFORMAT
  1
GRIDFORMAT_BEGIN
 90
        0
 91
        1
 62
     0
 92
       -2
340
14
 93
        0
 40
0.045
309
GRIDFORMAT_END
 95
       32
302
GRIDFORMAT
  1
GRIDFORMAT_BEGIN
 90
        0
 91
        1
 62
     0
 92
       -2
340
14
 93
        0
 40
0.045
309
GRIDFORMAT_END
309
TABLEFORMAT_END
  1
CELLSTYLE_BEGIN
 90
        3
 91
        2
300
_DATA
309
CELLSTYLE_END
  0
XRECORD
  5
180
102
{ACAD_REACTORS
330
17F
102
}
330
17F
100
AcDbXrecord
280
     1
102
ACAD_ROUNDTRIP_PRE2007_TABLESTYLE
 90
        4
 91
        0
  1

 92
        4
 93
        0
  2

 94
        4
 95
        0
  3

  0
ENDSEC
  0
EOF
